<?xml version="1.0" encoding="UTF-8" standalone="no"?>
<!-- Created with Inkscape (http://www.inkscape.org/) -->

<svg
   xmlns:dc="http://purl.org/dc/elements/1.1/"
   xmlns:cc="http://creativecommons.org/ns#"
   xmlns:rdf="http://www.w3.org/1999/02/22-rdf-syntax-ns#"
   xmlns:svg="http://www.w3.org/2000/svg"
   xmlns="http://www.w3.org/2000/svg"
   xmlns:sodipodi="http://sodipodi.sourceforge.net/DTD/sodipodi-0.dtd"
   xmlns:inkscape="http://www.inkscape.org/namespaces/inkscape"
   width="168.54886mm"
   height="113.85216mm"
   viewBox="0 0 168.54886 113.85216"
   version="1.1"
   id="svg8"
   inkscape:version="0.92.3 (2405546, 2018-03-11)"
   sodipodi:docname="mask-ems.svg">
  <defs
     id="defs2" />
  <sodipodi:namedview
     id="base"
     pagecolor="#ffffff"
     bordercolor="#666666"
     borderopacity="1.0"
     inkscape:pageopacity="0.0"
     inkscape:pageshadow="2"
     inkscape:zoom="1.7108262"
     inkscape:cx="296.98857"
     inkscape:cy="201.49351"
     inkscape:document-units="mm"
     inkscape:current-layer="layer1"
     showgrid="false"
     inkscape:window-width="2560"
     inkscape:window-height="1315"
     inkscape:window-x="-13"
     inkscape:window-y="-13"
     inkscape:window-maximized="1" />
  <metadata
     id="metadata5">
    <rdf:RDF>
      <cc:Work
         rdf:about="">
        <dc:format>image/svg+xml</dc:format>
        <dc:type
           rdf:resource="http://purl.org/dc/dcmitype/StillImage" />
        <dc:title></dc:title>
      </cc:Work>
    </rdf:RDF>
  </metadata>
  <g
     inkscape:label="Layer 1"
     inkscape:groupmode="layer"
     id="layer1"
     transform="translate(-15.082881,-17.586758)">
    <path
       style="fill:none;stroke:#000000;stroke-width:0.26458332px;stroke-linecap:butt;stroke-linejoin:miter;stroke-opacity:1"
       d="m 79.357308,122.46779 c -11.785113,11.78511 -38.214887,11.78511 -50,0 -18.856181,-18.85618 -18.856181,-61.143822 0,-80.000003 32.998316,-32.9983163 107.001682,-32.9983163 140.000002,0 18.85618,18.856181 18.85618,61.143823 0,80.000003 -11.78511,11.78511 -38.21489,11.78511 -50,0 -4.49581,-4.4958 -4.47567,-14.55823 0,-19.07408 7.01751,-7.080503 22.87978,6.80508 29.90551,-0.26727 9.55162,-9.614994 9.66671,-31.06416 0.0945,-40.658653 -23.54283,-23.597598 -76.429776,-23.570226 -100.000002,0 -9.42809,9.42809 -9.42809,30.57191 0,40.000003 7.071068,7.07107 22.928932,-7.071071 30,0 4.714045,4.71405 4.714045,15.28595 0,20 z"
       id="path14"
       inkscape:connector-curvature="0"
       sodipodi:nodetypes="aaaaaasaaaaaa" />
    <rect
       style="fill:#ffdd55;stroke:#000000;stroke-width:0.26458332"
       id="rect358"
       width="15"
       height="15"
       x="38.861008"
       y="39.306625"
       ry="1.4999996" />
    <rect
       style="fill:#ffdd55;stroke:#000000;stroke-width:0.26458332"
       id="rect358-0"
       width="15"
       height="15"
       x="20.882986"
       y="72.306625"
       ry="1.4999996" />
    <rect
       style="fill:#ffdd55;stroke:#000000;stroke-width:0.26458332"
       id="rect358-3"
       width="15"
       height="15"
       x="146.57935"
       y="39.306625"
       ry="1.4999996" />
    <rect
       style="fill:#ffdd55;stroke:#000000;stroke-width:0.26458332"
       id="rect358-0-0"
       width="15"
       height="15"
       x="-177.50623"
       y="72.306625"
       ry="1.4999996"
       transform="scale(-1,1)" />
    <path
       style="fill:#cccccc;stroke:#000000;stroke-width:1.8897638;stroke-miterlimit:4;stroke-dasharray:none"
       d="M 134.09592,428.46508 C 100.4195,425.26364 72.977323,413.97168 54.592261,395.75074 26.98691,368.39183 8.7902487,325.9277 2.869283,275.04883 1.5595197,263.79403 1.0777692,238.18434 1.9502047,226.19095 5.2707675,180.54307 18.951259,139.87938 40.831811,110.61985 55.355342,91.198425 78.010026,71.83485 105.68194,55.190693 187.00747,6.2748599 302.38674,-10.840053 409.98601,10.05141 c 55.3584,10.748379 105.16321,31.535316 143.79018,60.013424 36.69245,27.051883 56.3073,53.799356 69.73684,95.095566 8.83631,27.17196 12.57778,54.14326 11.91927,85.9234 -0.59732,28.83054 -4.7051,53.26893 -13.02395,77.48401 -8.48496,24.69876 -18.91805,43.43644 -33.75299,60.61988 -18.34661,21.25109 -43.70281,33.65456 -78.71764,38.50621 -8.91799,1.23568 -31.84692,1.40895 -40.62364,0.30699 -31.12007,-3.90727 -57.2734,-15.04966 -73.63931,-31.37338 -4.88757,-4.87497 -7.99199,-9.85419 -10.29376,-16.51034 -7.56715,-21.88237 -0.80301,-50.06976 14.16142,-59.0132 4.30615,-2.57355 9.03564,-3.67796 15.75044,-3.67796 9.13693,0 14.57757,1.1655 40.83098,8.74684 23.2205,6.70551 35.17388,7.34243 44.97214,2.39628 7.10969,-3.58896 15.69483,-14.20693 22.0064,-27.21722 8.6497,-17.82994 12.48214,-37.27975 11.79984,-59.88464 -0.71684,-23.74916 -6.76923,-44.66981 -17.65654,-61.03153 -8.16641,-12.27269 -25.80552,-27.58814 -45.59356,-39.58738 -9.5843,-5.8118 -28.44539,-14.88865 -39.74688,-19.12806 -65.35787,-24.517057 -146.60909,-26.187472 -213.93173,-4.39815 -23.92612,7.74382 -47.749,19.38975 -65.5004,32.02021 -12.85059,9.14343 -26.93424,22.35643 -32.11773,30.1322 -8.57014,12.85613 -14.19102,28.30324 -17.01768,46.76744 -1.24418,8.12721 -1.41288,27.29893 -0.31375,35.65529 3.17864,24.16627 12.26452,45.40084 24.91034,58.21786 6.42309,6.51005 12.57677,9.00306 22.2124,8.99877 9.38821,-0.004 16.218,-1.51977 43.27728,-9.60364 18.65382,-5.57276 31.02423,-6.88366 39.16236,-4.15004 14.90037,5.00507 24.91414,26.88416 22.56649,49.30553 -1.64905,15.74925 -6.6932,26.21156 -16.82552,34.89861 -17.4568,14.96675 -40.49979,24.44637 -68.28385,28.0912 -8.01053,1.05085 -28.54461,1.51326 -35.94754,0.8095 z M 76.235275,263.26197 c 0.906282,-0.53536 1.93323,-1.59986 2.282108,-2.36556 0.424316,-0.93128 0.63432,-9.6222 0.63432,-26.25144 v -24.85926 l -1.658509,-1.65851 c -1.100831,-1.10082 -2.525786,-1.78552 -4.237719,-2.03623 -1.418566,-0.20774 -12.717955,-0.29603 -25.10976,-0.19619 -20.538837,0.16548 -22.672584,0.27465 -24.137248,1.23499 -0.883683,0.5794 -1.857987,1.71441 -2.16512,2.52223 -0.322738,0.84887 -0.558423,11.83862 -0.558423,26.03871 v 24.56994 l 1.987344,1.98734 1.987343,1.98735 h 24.663937 c 21.962063,0 24.844448,-0.10664 26.311727,-0.97337 z m 536.342915,-1.01398 1.98735,-1.98734 v -24.75412 c 0,-23.48661 -0.0604,-24.84956 -1.13864,-26.61792 -0.76366,-1.25238 -1.86547,-2.06625 -3.35878,-2.48092 -2.95758,-0.82129 -45.86038,-0.83513 -48.81064,-0.0157 -1.19094,0.33077 -2.70336,1.28538 -3.36095,2.12136 -1.16297,1.47848 -1.19525,2.20805 -1.18261,26.72134 0.0141,27.32619 -0.0772,26.51903 3.20182,28.32226 0.79674,0.43815 9.05208,0.64854 25.92315,0.66065 l 24.75412,0.0178 1.98734,-1.98734 z m -467.24114,-124.71691 1.91041,-1.91074 v -24.74182 c 0,-26.946275 -0.0135,-27.063481 -3.31126,-28.768821 -2.45422,-1.26913 -48.894537,-1.215097 -51.359831,0.05976 -3.464584,1.791603 -3.487947,1.981441 -3.487947,28.338981 0,20.65221 0.128336,24.27126 0.914593,25.79171 1.739663,3.36414 2.241905,3.4208 29.030955,3.2747 l 24.39267,-0.13302 z m 405.50845,1.1792 c 1.12071,-0.56209 2.36623,-1.67957 2.76782,-2.48327 0.54884,-1.09841 0.73229,-7.5915 0.73877,-26.14773 l 0.009,-24.686454 -1.70559,-1.908885 -1.70559,-1.90889 h -25.5222 -25.52221 l -1.70559,1.90889 -1.70559,1.908885 V 110.3876 c 0,22.14689 0.10844,25.14961 0.95176,26.35361 1.99064,2.84204 2.96648,2.94558 27.98163,2.96909 21.11983,0.0199 23.57753,-0.0768 25.41818,-1.00002 z"
       id="path393"
       inkscape:connector-curvature="0"
       transform="matrix(0.26458333,0,0,0.26458333,15.082881,17.586758)" />
  </g>
</svg>
