<?xml version="1.0" encoding="UTF-8" standalone="no"?>
<!-- Created with Inkscape (http://www.inkscape.org/) -->

<svg
   xmlns:dc="http://purl.org/dc/elements/1.1/"
   xmlns:cc="http://creativecommons.org/ns#"
   xmlns:rdf="http://www.w3.org/1999/02/22-rdf-syntax-ns#"
   xmlns:svg="http://www.w3.org/2000/svg"
   xmlns="http://www.w3.org/2000/svg"
   xmlns:sodipodi="http://sodipodi.sourceforge.net/DTD/sodipodi-0.dtd"
   xmlns:inkscape="http://www.inkscape.org/namespaces/inkscape"
   width="857.93408mm"
   height="113.85216mm"
   viewBox="0 0 857.93406 113.85215"
   version="1.1"
   id="svg8"
   inkscape:version="0.92.3 (2405546, 2018-03-11)"
   sodipodi:docname="two-alternative-forced-choice-1.svg">
  <defs
     id="defs2" />
  <sodipodi:namedview
     id="base"
     pagecolor="#ffffff"
     bordercolor="#666666"
     borderopacity="1.0"
     inkscape:pageopacity="0.0"
     inkscape:pageshadow="2"
     inkscape:zoom="0.49497475"
     inkscape:cx="1651.2496"
     inkscape:cy="-217.06424"
     inkscape:document-units="mm"
     inkscape:current-layer="layer1"
     showgrid="false"
     inkscape:window-width="2560"
     inkscape:window-height="1315"
     inkscape:window-x="-13"
     inkscape:window-y="-13"
     inkscape:window-maximized="1" />
  <metadata
     id="metadata5">
    <rdf:RDF>
      <cc:Work
         rdf:about="">
        <dc:format>image/svg+xml</dc:format>
        <dc:type
           rdf:resource="http://purl.org/dc/dcmitype/StillImage" />
        <dc:title />
      </cc:Work>
    </rdf:RDF>
  </metadata>
  <g
     inkscape:label="Layer 1"
     inkscape:groupmode="layer"
     id="layer1"
     transform="translate(-41.341892,643.30041)">
    <g
       id="g8639">
      <g
         id="g8538">
        <g
           id="g9503"
           transform="translate(-1.6036172,-4.5917011)">
          <path
             sodipodi:nodetypes="aaaaaasaaaaaa"
             inkscape:connector-curvature="0"
             id="path14-9"
             d="m 107.21994,-533.82768 c -11.785114,11.78511 -38.214894,11.78511 -50.000004,0 -18.85618,-18.85618 -18.85618,-61.14382 0,-80 32.99831,-32.99832 107.001684,-32.99832 140.000004,0 18.85618,18.85618 18.85618,61.14382 0,80 -11.78511,11.78511 -38.21489,11.78511 -50,0 -4.49581,-4.4958 -4.47567,-14.55823 0,-19.07408 7.01751,-7.0805 22.87978,6.80508 29.90551,-0.26727 9.55162,-9.61499 9.66671,-31.06416 0.0945,-40.65865 -23.54283,-23.5976 -76.42978,-23.57023 -100.000004,0 -9.42809,9.42809 -9.42809,30.57191 0,40 7.07107,7.07107 22.928934,-7.07107 30.000004,0 4.71404,4.71405 4.71404,15.28595 0,20 z"
             style="fill:none;stroke:#000000;stroke-width:0.26458332px;stroke-linecap:butt;stroke-linejoin:miter;stroke-opacity:1" />
          <path
             inkscape:connector-curvature="0"
             id="path366-4"
             d="m 78.190295,-525.3529 c -9.270526,-0.8729 -16.962133,-4.27804 -21.814165,-9.65731 -5.239893,-5.80928 -8.899237,-13.02466 -11.060279,-21.80833 -2.009352,-8.16711 -2.535039,-16.97196 -1.527898,-25.59105 1.31132,-11.22225 5.17701,-21.17544 11.055125,-28.46421 1.361985,-1.68883 4.504995,-4.79027 6.722258,-6.63333 5.632085,-4.68156 11.978468,-8.54043 19.364473,-11.77439 19.306431,-8.45333 44.021111,-11.20544 66.817381,-7.44047 20.25794,3.34575 37.44686,11.31226 48.85115,22.64096 2.31786,2.30249 3.1898,3.3181 4.76126,5.54584 8.05668,11.42134 11.5004,28.91921 8.98158,45.63627 -2.07659,13.78206 -8.30649,25.73519 -16.45724,31.57604 -3.72802,2.67151 -8.97876,4.68202 -14.53213,5.56437 -5.01285,0.79647 -10.94433,0.69704 -15.787,-0.26465 -6.77843,-1.3461 -12.79531,-4.35859 -16.38701,-8.20454 -3.00392,-3.21657 -3.97232,-9.2597 -2.29184,-14.30181 1.10025,-3.30118 3.1244,-5.39427 5.8346,-6.03332 1.18424,-0.27924 3.9909,-0.17761 5.80859,0.21034 0.71413,0.15241 3.26989,0.83957 5.67948,1.52701 5.38996,1.53775 7.00734,1.8638 9.25873,1.86652 2.74321,0.003 4.28524,-0.58301 5.95804,-2.26545 7.52492,-7.56828 9.37654,-23.71984 3.99803,-34.87474 -1.79503,-3.72288 -4.424,-6.67862 -9.08744,-10.21699 -13.37831,-10.15074 -33.90553,-14.99078 -54.65662,-12.8873 -13.05856,1.32372 -25.43901,5.64601 -34.308922,11.97802 -3.879811,2.7697 -7.086256,5.8059 -8.702188,8.24014 -6.271869,9.44797 -6.270324,24.85633 0.0034,34.3139 2.530518,3.8147 4.528897,5.04043 8.195805,5.02702 2.339554,-0.009 4.004688,-0.37071 10.075656,-2.19136 4.207613,-1.26184 6.14445,-1.68782 8.165489,-1.7959 3.31717,-0.1774 5.50177,0.89259 7.20822,3.53049 2.32126,3.5883 2.89576,9.11398 1.40897,13.55175 -0.73539,2.195 -1.62145,3.60455 -3.20476,5.09816 -4.33109,4.08574 -10.793828,6.83785 -18.575454,7.91023 -1.816557,0.25034 -7.857259,0.36681 -9.755338,0.18809 z"
             style="fill:#cccccc;stroke:#000000;stroke-width:0.5;stroke-miterlimit:4;stroke-dasharray:none" />
          <rect
             transform="rotate(32.12484)"
             y="-618.71234"
             x="-189.01054"
             height="13"
             width="13"
             id="rect267-8-6"
             style="fill:#5599ff;stroke:#000000;stroke-width:0.5;stroke-miterlimit:4;stroke-dasharray:none" />
          <path
             style="fill:#ff5555;stroke:#000000;stroke-width:0.06313454;stroke-miterlimit:4;stroke-dasharray:none"
             d="m 167.70451,-610.22977 c -2.88412,-1.81108 -5.25713,-3.30614 -5.27335,-3.32236 -0.0453,-0.0453 6.56282,-10.56218 6.62322,-10.54099 0.0597,0.021 10.42681,6.5244 10.48181,6.57542 0.03,0.0279 -0.75547,1.30297 -3.22931,5.24189 -1.79797,2.86278 -3.28917,5.23516 -3.31378,5.27197 -0.0426,0.0638 -0.29244,-0.0886 -5.28859,-3.22593 z"
             id="path5307"
             inkscape:connector-curvature="0" />
        </g>
        <g
           id="g9513"
           transform="translate(-3.8987722,-2.2052723)">
          <path
             style="fill:none;stroke:#000000;stroke-width:0.26458332px;stroke-linecap:butt;stroke-linejoin:miter;stroke-miterlimit:4;stroke-dasharray:none;stroke-opacity:1"
             d="m 298.86331,-536.21411 c -11.78512,11.78511 -38.21489,11.78512 -50,0 -18.85619,-18.85618 -18.85619,-61.14382 0,-79.99999 32.99831,-32.99833 107.00168,-32.99833 140.00001,-10e-6 18.85617,18.85618 18.85617,61.14381 -10e-6,80 -11.78511,11.78511 -38.21489,11.78511 -49.99999,0 -4.49582,-4.4958 -4.47568,-14.55823 -10e-6,-19.07408 7.01752,-7.08049 22.87978,6.80508 29.90551,-0.26727 9.55162,-9.61499 9.66672,-31.06416 0.0945,-40.65865 -23.54283,-23.5976 -76.42978,-23.57023 -100.00001,0 -9.42808,9.42809 -9.42808,30.57191 10e-6,40 7.07107,7.07108 22.92893,-7.07107 30,0 4.71404,4.71405 4.71405,15.28595 0,20.00001 z"
             id="path14-9-7"
             inkscape:connector-curvature="0"
             sodipodi:nodetypes="aaaaaasaaaaaa" />
          <path
             style="fill:#cccccc;stroke:#000000;stroke-width:0.5;stroke-miterlimit:4;stroke-dasharray:none"
             d="m 269.83366,-527.73932 c -9.27052,-0.87291 -16.96212,-4.27805 -21.81416,-9.65731 -5.2399,-5.80928 -8.89924,-13.02466 -11.06028,-21.80833 -2.00935,-8.16711 -2.53504,-16.97196 -1.5279,-25.59106 1.31132,-11.22224 5.17701,-21.17544 11.05513,-28.4642 1.36198,-1.68884 4.505,-4.79028 6.72225,-6.63334 5.63209,-4.68155 11.97848,-8.54043 19.36448,-11.77439 19.30643,-8.45333 44.02112,-11.20544 66.81739,-7.44047 20.25794,3.34575 37.44686,11.31226 48.85115,22.64096 2.31786,2.30249 3.18979,3.3181 4.76125,5.54584 8.05668,11.42134 11.5004,28.91921 8.98158,45.63627 -2.07658,13.78206 -8.30649,25.73519 -16.45725,31.57604 -3.72801,2.67151 -8.97875,4.68203 -14.53212,5.56437 -5.01286,0.79647 -10.94433,0.69704 -15.787,-0.26465 -6.77843,-1.34609 -12.79532,-4.35859 -16.38701,-8.20454 -3.00391,-3.21657 -3.97232,-9.25969 -2.29184,-14.3018 1.10026,-3.30119 3.1244,-5.39427 5.8346,-6.03333 1.18424,-0.27923 3.9909,-0.17761 5.80859,0.21035 0.71413,0.1524 3.26989,0.83957 5.67948,1.527 5.38996,1.53775 7.00734,1.8638 9.25873,1.86652 2.74321,0.003 4.28524,-0.58301 5.95803,-2.26545 7.52493,-7.56828 9.37656,-23.71984 3.99804,-34.87474 -1.79503,-3.72288 -4.424,-6.67862 -9.08744,-10.21699 -13.3783,-10.15074 -33.90553,-14.99078 -54.65661,-12.8873 -13.05857,1.32372 -25.43902,5.64601 -34.30893,11.97803 -3.87981,2.7697 -7.08626,5.8059 -8.70219,8.24013 -6.27187,9.44797 -6.27033,24.85633 0.003,34.3139 2.53051,3.8147 4.52889,5.04043 8.19579,5.02702 2.33956,-0.009 4.0047,-0.3707 10.07566,-2.19136 4.20762,-1.26183 6.14446,-1.68782 8.1655,-1.7959 3.31716,-0.1774 5.50176,0.8926 7.20821,3.53049 2.32126,3.5883 2.89577,9.11398 1.40897,13.55175 -0.73539,2.195 -1.62144,3.60455 -3.20471,5.09819 -4.33108,4.08574 -10.79382,6.83785 -18.57545,7.91024 -1.81656,0.25033 -7.85726,0.36681 -9.75534,0.18808 z"
             id="path366-4-9"
             inkscape:connector-curvature="0" />
          <path
             style="fill:#ececec;stroke:#000000;stroke-width:0.15465237;stroke-miterlimit:4;stroke-dasharray:none"
             d="m 348.519,-619.30765 c -2.83432,-0.80135 -4.234,-3.94633 -2.92351,-6.56887 0.86433,-1.72968 2.23785,-2.57973 4.16838,-2.57973 1.93051,0 3.30404,0.85005 4.16836,2.57972 1.48104,2.9638 -0.48221,6.41605 -3.80599,6.69262 -0.51172,0.0426 -1.20882,-0.0111 -1.60724,-0.12374 z"
             id="path462-0-6"
             inkscape:connector-curvature="0" />
          <path
             style="fill:#ececec;stroke:#000000;stroke-width:0.15465237;stroke-miterlimit:4;stroke-dasharray:none"
             d="m 373.78004,-605.89336 c -2.83433,-0.80135 -4.234,-3.94633 -2.92352,-6.56887 0.86433,-1.72968 2.23786,-2.57973 4.16839,-2.57973 1.93051,0 3.30404,0.85005 4.16837,2.57973 1.48103,2.96379 -0.48223,6.41604 -3.80601,6.6926 -0.51171,0.0426 -1.20882,-0.0111 -1.60723,-0.12373 z"
             id="path464-1-7"
             inkscape:connector-curvature="0" />
          <rect
             transform="rotate(32.12484)"
             y="-722.64282"
             x="-27.978449"
             height="13"
             width="13"
             id="rect267-8-6-1"
             style="fill:#5599ff;stroke:#000000;stroke-width:0.5;stroke-miterlimit:4;stroke-dasharray:none" />
          <path
             style="fill:#ff5555;stroke:#000000;stroke-width:0.06313454;stroke-miterlimit:4;stroke-dasharray:none"
             d="m 359.34787,-612.6162 c -2.88411,-1.81107 -5.25711,-3.30615 -5.27334,-3.32236 -0.0453,-0.0453 6.56283,-10.56218 6.62338,-10.54089 0.0598,0.021 10.42681,6.52439 10.4818,6.57542 0.0301,0.0279 -0.75545,1.30298 -3.22929,5.2419 -1.79797,2.86278 -3.28944,5.23499 -3.31382,5.27195 -0.0425,0.0639 -0.29245,-0.0886 -5.2886,-3.22594 z"
             id="path5307-4"
             inkscape:connector-curvature="0" />
          <path
             transform="matrix(0.26458333,0,0,0.26458333,-3.6258828e-4,-703.00043)"
             inkscape:connector-curvature="0"
             id="path9367"
             d="m 1315.3603,315.0372 c -9.1687,-4.12955 -12.7766,-14.63481 -8.1399,-23.70126 2.9349,-5.73864 7.1568,-8.31663 14.1418,-8.63513 6.2481,-0.2849 10.3093,1.52257 13.7899,6.1373 6.175,8.18725 4.2333,19.43651 -4.2613,24.68834 -4.1932,2.59243 -11.5417,3.30727 -15.5305,1.51075 z"
             style="fill:#ececec;stroke:#000000;stroke-width:1.34983134;stroke-miterlimit:4;stroke-dasharray:none" />
          <path
             transform="matrix(0.26458333,0,0,0.26458333,-3.6258828e-4,-703.00043)"
             inkscape:connector-curvature="0"
             id="path9369"
             d="m 1409.6474,364.8795 c -11.4814,-6.04108 -12.2159,-22.05411 -1.3417,-29.25031 2.7304,-1.8069 3.6234,-1.99969 9.2624,-1.99969 5.786,0 6.4608,0.1561 9.2637,2.14286 1.7365,1.23083 3.9477,3.78786 5.1955,6.00788 8.1611,14.52022 -7.6565,30.84621 -22.3799,23.09926 z"
             style="fill:#f2f2f2;stroke:#000000;stroke-width:1.34983134;stroke-miterlimit:4;stroke-dasharray:none" />
        </g>
      </g>
      <path
         style="fill:none;stroke:#000000;stroke-width:0.26458332px;stroke-linecap:butt;stroke-linejoin:miter;stroke-miterlimit:4;stroke-dasharray:none;stroke-opacity:1"
         d="m 605.65333,-538.41938 c -11.78512,11.78511 -38.21489,11.78512 -50,0 -18.85619,-18.85618 -18.85619,-61.14382 0,-79.99999 32.99831,-32.99833 107.00168,-32.99833 140.00001,-1e-5 18.85617,18.85618 18.85617,61.14381 -10e-6,80 -11.78511,11.78511 -38.21489,11.78511 -49.99999,0 -4.49582,-4.4958 -4.47568,-14.55823 -10e-6,-19.07408 7.01752,-7.08049 22.87978,6.80508 29.90551,-0.26727 9.55162,-9.61499 9.66672,-31.06416 0.0945,-40.65865 -23.54283,-23.5976 -76.42978,-23.57023 -100.00001,0 -9.42808,9.42809 -9.42808,30.57191 10e-6,40 7.07107,7.07108 22.92893,-7.07107 30,0 4.71404,4.71405 4.71405,15.28595 0,20.00001 z"
         id="path14-9-7-3"
         inkscape:connector-curvature="0"
         sodipodi:nodetypes="aaaaaasaaaaaa" />
      <path
         style="fill:#cccccc;stroke:#000000;stroke-width:0.5;stroke-miterlimit:4;stroke-dasharray:none"
         d="m 576.62368,-529.94459 c -9.27052,-0.87291 -16.96212,-4.27805 -21.81416,-9.65731 -5.2399,-5.80928 -8.89924,-13.02466 -11.06028,-21.80833 -2.00935,-8.16711 -2.53504,-16.97196 -1.5279,-25.59106 1.31132,-11.22224 5.17701,-21.17544 11.05513,-28.4642 1.36198,-1.68884 4.505,-4.79028 6.72225,-6.63334 5.63209,-4.68155 11.97848,-8.54043 19.36448,-11.77439 19.30643,-8.45333 44.02112,-11.20544 66.81739,-7.44047 20.25794,3.34575 37.44686,11.31226 48.85115,22.64096 2.31786,2.30249 3.18979,3.3181 4.76125,5.54584 8.05668,11.42134 11.5004,28.91921 8.98158,45.63627 -2.07658,13.78206 -8.30649,25.73519 -16.45725,31.57604 -3.72801,2.67151 -8.97875,4.68203 -14.53212,5.56437 -5.01286,0.79647 -10.94433,0.69704 -15.787,-0.26465 -6.77843,-1.34609 -12.79532,-4.35859 -16.38701,-8.20454 -3.00391,-3.21657 -3.97232,-9.25969 -2.29184,-14.3018 1.10026,-3.30119 3.1244,-5.39427 5.8346,-6.03333 1.18424,-0.27923 3.9909,-0.17761 5.80859,0.21035 0.71413,0.1524 3.26989,0.83957 5.67948,1.527 5.38996,1.53775 7.00734,1.8638 9.25873,1.86652 2.74321,0.003 4.28524,-0.58301 5.95803,-2.26545 7.52493,-7.56828 9.37656,-23.71984 3.99804,-34.87474 -1.79503,-3.72288 -4.424,-6.67862 -9.08744,-10.21699 -13.3783,-10.15074 -33.90553,-14.99078 -54.65661,-12.8873 -13.05857,1.32372 -25.43902,5.64601 -34.30893,11.97803 -3.87981,2.7697 -7.08626,5.8059 -8.70219,8.24013 -6.27187,9.44797 -6.27033,24.85633 0.003,34.3139 2.53051,3.8147 4.52889,5.04043 8.19579,5.02702 2.33956,-0.009 4.0047,-0.3707 10.07566,-2.19136 4.20762,-1.26183 6.14446,-1.68782 8.1655,-1.7959 3.31716,-0.1774 5.50176,0.8926 7.20821,3.53049 2.32126,3.5883 2.89577,9.11398 1.40897,13.55175 -0.73539,2.195 -1.62144,3.60455 -3.20471,5.09819 -4.33108,4.08574 -10.79382,6.83785 -18.57545,7.91024 -1.81656,0.25033 -7.85726,0.36681 -9.75534,0.18808 z"
         id="path366-4-9-6"
         inkscape:connector-curvature="0" />
      <path
         style="fill:#ececec;stroke:#000000;stroke-width:0.15465237;stroke-miterlimit:4;stroke-dasharray:none"
         d="m 655.30902,-621.51292 c -2.83432,-0.80135 -4.234,-3.94633 -2.92351,-6.56887 0.86433,-1.72968 2.23785,-2.57973 4.16838,-2.57973 1.93051,0 3.30404,0.85005 4.16836,2.57972 1.48104,2.9638 -0.48221,6.41605 -3.80599,6.69262 -0.51172,0.0426 -1.20882,-0.0111 -1.60724,-0.12374 z"
         id="path462-0-6-7"
         inkscape:connector-curvature="0" />
      <path
         style="fill:#ececec;stroke:#000000;stroke-width:0.15465237;stroke-miterlimit:4;stroke-dasharray:none"
         d="m 680.57006,-608.09863 c -2.83433,-0.80135 -4.234,-3.94633 -2.92352,-6.56887 0.86433,-1.72968 2.23786,-2.57973 4.16839,-2.57973 1.93051,0 3.30404,0.85005 4.16837,2.57973 1.48103,2.96379 -0.48223,6.41604 -3.80601,6.6926 -0.51171,0.0426 -1.20882,-0.0111 -1.60723,-0.12373 z"
         id="path464-1-7-5"
         inkscape:connector-curvature="0" />
      <rect
         transform="rotate(32.124841)"
         y="-887.65088"
         x="230.6667"
         height="13"
         width="13"
         id="rect267-8-6-1-0"
         style="fill:#5599ff;stroke:#000000;stroke-width:0.5;stroke-miterlimit:4;stroke-dasharray:none" />
      <path
         style="fill:#ff5555;stroke:#000000;stroke-width:0.06313454;stroke-miterlimit:4;stroke-dasharray:none"
         d="m 666.13789,-614.82147 c -2.88411,-1.81107 -5.25711,-3.30615 -5.27334,-3.32236 -0.0453,-0.0453 6.56283,-10.56218 6.62338,-10.54089 0.0598,0.021 10.42681,6.52439 10.4818,6.57542 0.0301,0.0279 -0.75545,1.30298 -3.22929,5.2419 -1.79797,2.86278 -3.28944,5.23499 -3.31382,5.27195 -0.0425,0.0639 -0.29245,-0.0886 -5.2886,-3.22594 z"
         id="path5307-4-5"
         inkscape:connector-curvature="0" />
      <path
         inkscape:connector-curvature="0"
         id="path9367-8"
         d="m 654.81207,-621.8521 c -2.42589,-1.09261 -3.38048,-3.87213 -2.15368,-6.27096 0.77652,-1.51835 1.89357,-2.20044 3.74168,-2.28471 1.65315,-0.0754 2.72767,0.40285 3.64858,1.62383 1.6338,2.16621 1.12006,5.14257 -1.12747,6.53212 -1.10945,0.68591 -3.05374,0.87505 -4.10911,0.39972 z"
         style="fill:#999999;stroke:#000000;stroke-width:0.35714287;stroke-miterlimit:4;stroke-dasharray:none" />
      <path
         inkscape:connector-curvature="0"
         id="path9369-9"
         d="m 679.75886,-608.66466 c -3.03778,-1.59837 -3.23212,-5.83515 -0.35499,-7.73914 0.72242,-0.47808 0.95869,-0.52909 2.45068,-0.52909 1.53088,0 1.70942,0.0413 2.45102,0.56697 0.45945,0.32566 1.0445,1.0022 1.37464,1.58958 2.15929,3.84181 -2.02578,8.1614 -5.92135,6.11168 z"
         style="fill:#999999;stroke:#000000;stroke-width:0.35714287;stroke-miterlimit:4;stroke-dasharray:none" />
      <path
         style="fill:none;stroke:#000000;stroke-width:0.26458332px;stroke-linecap:butt;stroke-linejoin:miter;stroke-miterlimit:4;stroke-dasharray:none;stroke-opacity:1"
         d="m 795.00153,-538.41938 c -11.78512,11.78511 -38.21489,11.78512 -50,0 -18.85619,-18.85618 -18.85619,-61.14382 0,-79.99999 32.99831,-32.99833 107.00167,-32.99833 140,-1e-5 18.85617,18.85618 18.85617,61.14381 -10e-6,80 -11.78511,11.78511 -38.21489,11.78511 -49.99999,0 -4.49581,-4.4958 -4.47567,-14.55823 -10e-6,-19.07408 7.01752,-7.08049 22.87978,6.80508 29.90551,-0.26727 9.55162,-9.61499 9.66672,-31.06416 0.0945,-40.65865 -23.54283,-23.5976 -76.42977,-23.57023 -100,0 -9.42808,9.42809 -9.42808,30.57191 10e-6,40 7.07107,7.07108 22.92893,-7.07107 30,0 4.71404,4.71405 4.71405,15.28595 0,20.00001 z"
         id="path14-9-7-3-6"
         inkscape:connector-curvature="0"
         sodipodi:nodetypes="aaaaaasaaaaaa" />
      <path
         style="fill:#cccccc;stroke:#000000;stroke-width:0.5;stroke-miterlimit:4;stroke-dasharray:none"
         d="m 765.97188,-529.94459 c -9.27052,-0.87291 -16.96212,-4.27805 -21.81416,-9.65731 -5.2399,-5.80928 -8.89924,-13.02466 -11.06028,-21.80833 -2.00935,-8.16711 -2.53504,-16.97196 -1.5279,-25.59106 1.31132,-11.22224 5.17701,-21.17544 11.05513,-28.4642 1.36198,-1.68884 4.505,-4.79028 6.72225,-6.63334 5.63209,-4.68155 11.97848,-8.54043 19.36448,-11.77439 19.30643,-8.45333 44.02112,-11.20544 66.81738,-7.44047 20.25794,3.34575 37.44686,11.31226 48.85115,22.64096 2.31786,2.30249 3.18979,3.3181 4.76125,5.54584 8.05668,11.42134 11.5004,28.91921 8.98158,45.63627 -2.07658,13.78206 -8.30649,25.73519 -16.45725,31.57604 -3.72801,2.67151 -8.97875,4.68203 -14.53212,5.56437 -5.01286,0.79647 -10.94433,0.69704 -15.787,-0.26465 -6.77843,-1.34609 -12.79532,-4.35859 -16.38701,-8.20454 -3.00391,-3.21657 -3.97232,-9.25969 -2.29184,-14.3018 1.10026,-3.30119 3.1244,-5.39427 5.8346,-6.03333 1.18424,-0.27923 3.9909,-0.17761 5.80859,0.21035 0.71413,0.1524 3.26989,0.83957 5.67948,1.527 5.38996,1.53775 7.00734,1.8638 9.25873,1.86652 2.74321,0.003 4.28524,-0.58301 5.95803,-2.26545 7.52493,-7.56828 9.37656,-23.71984 3.99804,-34.87474 -1.79503,-3.72288 -4.424,-6.67862 -9.08744,-10.21699 -13.3783,-10.15074 -33.90552,-14.99078 -54.6566,-12.8873 -13.05857,1.32372 -25.43902,5.64601 -34.30893,11.97803 -3.87981,2.7697 -7.08626,5.8059 -8.70219,8.24013 -6.27187,9.44797 -6.27033,24.85633 0.003,34.3139 2.53051,3.8147 4.52889,5.04043 8.19579,5.02702 2.33956,-0.009 4.0047,-0.3707 10.07566,-2.19136 4.20762,-1.26183 6.14446,-1.68782 8.1655,-1.7959 3.31716,-0.1774 5.50176,0.8926 7.20821,3.53049 2.32126,3.5883 2.89577,9.11398 1.40897,13.55175 -0.73539,2.195 -1.62144,3.60455 -3.20471,5.09819 -4.33108,4.08574 -10.79382,6.83785 -18.57545,7.91024 -1.81656,0.25033 -7.85726,0.36681 -9.75534,0.18808 z"
         id="path366-4-9-6-2"
         inkscape:connector-curvature="0" />
      <rect
         transform="rotate(32.124841)"
         y="-988.33984"
         x="391.02405"
         height="13"
         width="13"
         id="rect267-8-6-1-0-3"
         style="fill:#5599ff;stroke:#000000;stroke-width:0.5;stroke-miterlimit:4;stroke-dasharray:none" />
      <path
         style="fill:#ff5555;stroke:#000000;stroke-width:0.06313454;stroke-miterlimit:4;stroke-dasharray:none"
         d="m 855.48608,-614.82147 c -2.88411,-1.81107 -5.25711,-3.30615 -5.27334,-3.32236 -0.0453,-0.0453 6.56283,-10.56218 6.62338,-10.54089 0.0598,0.021 10.42681,6.52439 10.4818,6.57542 0.0301,0.0279 -0.75545,1.30298 -3.22929,5.2419 -1.79797,2.86278 -3.28944,5.23499 -3.31382,5.27195 -0.0425,0.0639 -0.29245,-0.0886 -5.2886,-3.22594 z"
         id="path5307-4-5-0"
         inkscape:connector-curvature="0" />
    </g>
  </g>
</svg>
