<?xml version="1.0" encoding="UTF-8" standalone="no"?>
<!-- Created with Inkscape (http://www.inkscape.org/) -->

<svg
   xmlns:dc="http://purl.org/dc/elements/1.1/"
   xmlns:cc="http://creativecommons.org/ns#"
   xmlns:rdf="http://www.w3.org/1999/02/22-rdf-syntax-ns#"
   xmlns:svg="http://www.w3.org/2000/svg"
   xmlns="http://www.w3.org/2000/svg"
   xmlns:sodipodi="http://sodipodi.sourceforge.net/DTD/sodipodi-0.dtd"
   xmlns:inkscape="http://www.inkscape.org/namespaces/inkscape"
   width="168.54886mm"
   height="172.6351mm"
   viewBox="0 0 168.54886 172.63509"
   version="1.1"
   id="svg8"
   inkscape:version="0.92.3 (2405546, 2018-03-11)"
   sodipodi:docname="mask-full.svg">
  <defs
     id="defs2" />
  <sodipodi:namedview
     id="base"
     pagecolor="#ffffff"
     bordercolor="#666666"
     borderopacity="1.0"
     inkscape:pageopacity="0.0"
     inkscape:pageshadow="2"
     inkscape:zoom="0.9899495"
     inkscape:cx="-32.427885"
     inkscape:cy="401.52931"
     inkscape:document-units="mm"
     inkscape:current-layer="layer1"
     showgrid="false"
     inkscape:window-width="2560"
     inkscape:window-height="1315"
     inkscape:window-x="-13"
     inkscape:window-y="-13"
     inkscape:window-maximized="1" />
  <metadata
     id="metadata5">
    <rdf:RDF>
      <cc:Work
         rdf:about="">
        <dc:format>image/svg+xml</dc:format>
        <dc:type
           rdf:resource="http://purl.org/dc/dcmitype/StillImage" />
        <dc:title />
      </cc:Work>
    </rdf:RDF>
  </metadata>
  <g
     inkscape:label="Layer 1"
     inkscape:groupmode="layer"
     id="layer1"
     transform="translate(3.6665971e-4,-183.14742)">
    <path
       style="fill:none;stroke:#000000;stroke-width:0.26458332px;stroke-linecap:butt;stroke-linejoin:miter;stroke-opacity:1"
       d="m 64.27406,288.02845 c -11.78511,11.78511 -38.21489,11.78511 -50,0 -18.85618,-18.85618 -18.85618,-61.14382 0,-80 32.99831,-32.99832 107.00168,-32.99832 140,0 18.85618,18.85618 18.85618,61.14382 0,80 -11.78511,11.78511 -38.21489,11.78511 -50,0 -4.49581,-4.4958 -4.47567,-14.55823 0,-19.07408 7.01751,-7.0805 22.87978,6.80508 29.90551,-0.26727 9.55162,-9.61499 9.66671,-31.06416 0.0945,-40.65865 -23.54283,-23.5976 -76.42978,-23.57023 -100,0 -9.42809,9.42809 -9.42809,30.57191 0,40 7.07107,7.07107 22.92893,-7.07107 30,0 4.71404,4.71405 4.71404,15.28595 0,20 z"
       id="path14"
       inkscape:connector-curvature="0"
       sodipodi:nodetypes="aaaaaasaaaaaa" />
    <path
       style="fill:#cccccc;stroke:#000000;stroke-width:0.5;stroke-miterlimit:4;stroke-dasharray:none"
       d="m 35.244419,296.50323 c -9.270526,-0.8729 -16.962133,-4.27804 -21.814165,-9.65731 -5.2398932,-5.80928 -8.8992367,-13.02466 -11.0602793,-21.80833 -2.00935164,-8.16711 -2.53503903,-16.97196 -1.5278973,-25.59105 1.31132,-11.22225 5.1770094,-21.17544 11.0551246,-28.46421 1.361985,-1.68883 4.504995,-4.79027 6.722258,-6.63333 5.632085,-4.68156 11.978468,-8.54043 19.364473,-11.77439 19.306426,-8.45333 44.021113,-11.20544 66.817377,-7.44047 20.25794,3.34575 37.44686,11.31226 48.85115,22.64096 2.31786,2.30249 3.1898,3.3181 4.76126,5.54584 8.05668,11.42134 11.5004,28.91921 8.98158,45.63627 -2.07659,13.78206 -8.30649,25.73519 -16.45724,31.57604 -3.72802,2.67151 -8.97876,4.68202 -14.53213,5.56437 -5.01285,0.79647 -10.94433,0.69704 -15.787,-0.26465 -6.77843,-1.3461 -12.79531,-4.35859 -16.38701,-8.20454 -3.00392,-3.21657 -3.97232,-9.2597 -2.29184,-14.30181 1.10025,-3.30118 3.1244,-5.39427 5.8346,-6.03332 1.18424,-0.27924 3.9909,-0.17761 5.80859,0.21034 0.71413,0.15241 3.26989,0.83957 5.67948,1.52701 5.38996,1.53775 7.00734,1.8638 9.25873,1.86652 2.74321,0.003 4.28524,-0.58301 5.95804,-2.26545 7.52492,-7.56828 9.37654,-23.71984 3.99803,-34.87474 -1.79503,-3.72288 -4.424,-6.67862 -9.08744,-10.21699 -13.37831,-10.15074 -33.90553,-14.99078 -54.656618,-12.8873 -13.058561,1.32372 -25.439008,5.64601 -34.30892,11.97802 -3.879811,2.7697 -7.086256,5.8059 -8.702188,8.24014 -6.271869,9.44797 -6.270324,24.85633 0.0034,34.3139 2.530518,3.8147 4.528897,5.04043 8.195805,5.02702 2.339554,-0.009 4.004688,-0.37071 10.075656,-2.19136 4.207613,-1.26184 6.14445,-1.68782 8.165489,-1.7959 3.317168,-0.1774 5.501772,0.89259 7.208223,3.53049 2.321256,3.5883 2.895762,9.11398 1.40897,13.55175 -0.735391,2.195 -1.621449,3.60455 -3.204758,5.09816 -4.331094,4.08574 -10.793833,6.83785 -18.575459,7.91023 -1.816557,0.25034 -7.857259,0.36681 -9.755338,0.18809 z"
       id="path366"
       inkscape:connector-curvature="0" />
    <rect
       style="fill:#ffdd55;stroke:#000000;stroke-width:0.5;stroke-miterlimit:4;stroke-dasharray:none"
       id="rect358"
       width="15"
       height="15"
       x="15.592999"
       y="208.85918"
       ry="1.4999996" />
    <rect
       style="fill:#ffdd55;stroke:#000000;stroke-width:0.5;stroke-miterlimit:4;stroke-dasharray:none"
       id="rect358-0"
       width="15"
       height="15"
       x="6.613019"
       y="236.21149"
       ry="1.4999996" />
    <rect
       style="fill:#ffdd55;stroke:#000000;stroke-width:0.5;stroke-miterlimit:4;stroke-dasharray:none"
       id="rect358-3"
       width="15"
       height="15"
       x="148.10739"
       y="236.2113"
       ry="1.4999996" />
    <rect
       style="fill:#ffdd55;stroke:#000000;stroke-width:0.5;stroke-miterlimit:4;stroke-dasharray:none"
       id="rect358-0-0"
       width="15"
       height="15"
       x="-150.78084"
       y="209.16687"
       ry="1.4999996"
       transform="scale(-1,1)" />
    <path
       style="fill:#ececec;stroke:#000000;stroke-width:0.15465237"
       d="m 52.928374,285.29397 c -1.240787,-0.40608 -2.326198,-1.38874 -2.899851,-2.62532 -0.336193,-0.72471 -0.375367,-0.98453 -0.314788,-2.08781 0.08453,-1.53953 0.418253,-2.25561 1.507659,-3.23509 1.892927,-1.7019 4.549373,-1.6246 6.359012,0.18504 1.770292,1.77029 1.885444,4.43456 0.270936,6.26874 -1.003316,1.13983 -1.806025,1.52539 -3.283874,1.57732 -0.688303,0.0242 -1.425897,-0.0131 -1.639093,-0.0829 z"
       id="path444"
       inkscape:connector-curvature="0" />
    <path
       style="fill:#ececec;stroke:#000000;stroke-width:0.15465237"
       d="m 25.835136,286.99354 c -0.987195,-0.37948 -2.01857,-1.35251 -2.525422,-2.38255 -0.30182,-0.61337 -0.378642,-1.00773 -0.376097,-1.93071 0.0037,-1.3559 0.340629,-2.23846 1.230429,-3.22336 2.157452,-2.38804 6.168397,-1.76668 7.609501,1.17883 0.576724,1.17878 0.600356,2.8229 0.05675,3.94812 -1.090562,2.25737 -3.681883,3.29892 -5.995161,2.40967 z"
       id="path446"
       inkscape:connector-curvature="0" />
    <path
       style="fill:#ececec;stroke:#000000;stroke-width:0.15465237"
       d="m 15.782571,272.90385 c -2.834319,-0.80136 -4.234006,-3.94634 -2.923507,-6.56888 0.864331,-1.72968 2.237857,-2.57973 4.168372,-2.57973 1.930514,0 3.304041,0.85005 4.168372,2.57973 1.481027,2.9638 -0.482222,6.41605 -3.806001,6.69261 -0.511719,0.0426 -1.208813,-0.0111 -1.607236,-0.12373 z"
       id="path448"
       inkscape:connector-curvature="0" />
    <path
       style="fill:#ececec;stroke:#000000;stroke-width:0.15465237"
       d="m 12.28266,254.1219 c -2.8343186,-0.80136 -4.2340056,-3.94634 -2.9235066,-6.56888 0.8643306,-1.72968 2.2378566,-2.57973 4.1683716,-2.57973 1.930514,0 3.304041,0.85005 4.168371,2.57973 1.481028,2.9638 -0.482221,6.41605 -3.806001,6.69261 -0.511718,0.0426 -1.208813,-0.0111 -1.607235,-0.12373 z"
       id="path450"
       inkscape:connector-curvature="0" />
    <path
       style="fill:#ececec;stroke:#000000;stroke-width:0.15465237"
       d="m 14.757098,233.24383 c -2.834319,-0.80136 -4.234006,-3.94634 -2.923507,-6.56888 0.86433,-1.72968 2.237857,-2.57973 4.168372,-2.57973 1.930514,0 3.304041,0.85005 4.168371,2.57973 1.481027,2.9638 -0.482221,6.41605 -3.806001,6.69261 -0.511719,0.0426 -1.208813,-0.0111 -1.607235,-0.12373 z"
       id="path452"
       inkscape:connector-curvature="0" />
    <path
       style="fill:#ececec;stroke:#000000;stroke-width:0.15465237"
       d="m 24.597756,218.08193 c -2.834319,-0.80135 -4.234005,-3.94633 -2.923506,-6.56887 0.86433,-1.72968 2.237857,-2.57973 4.168371,-2.57973 1.930516,0 3.304042,0.85005 4.168372,2.57973 1.481027,2.96379 -0.482221,6.41604 -3.806002,6.69261 -0.511717,0.0426 -1.208812,-0.0111 -1.607235,-0.12374 z"
       id="path454"
       inkscape:connector-curvature="0" />
    <path
       style="fill:#ececec;stroke:#000000;stroke-width:0.15465237"
       d="m 50.18159,204.98448 c -2.83432,-0.80136 -4.234006,-3.94634 -2.923506,-6.56888 0.86433,-1.72968 2.237857,-2.57973 4.16837,-2.57973 1.930514,0 3.304043,0.85005 4.168373,2.57973 1.481026,2.9638 -0.482221,6.41605 -3.806002,6.69261 -0.511717,0.0426 -1.208812,-0.0111 -1.607235,-0.12373 z"
       id="path456"
       inkscape:connector-curvature="0" />
    <path
       style="fill:#ececec;stroke:#000000;stroke-width:0.15465237"
       d="m 69.040081,202.1587 c -2.83432,-0.80136 -4.234005,-3.94634 -2.923508,-6.56888 0.86433,-1.72968 2.237859,-2.57973 4.168373,-2.57973 1.930514,0 3.30404,0.85005 4.16837,2.57973 1.481029,2.9638 -0.482219,6.41605 -3.806,6.69261 -0.51172,0.0426 -1.208811,-0.0111 -1.607235,-0.12373 z"
       id="path458"
       inkscape:connector-curvature="0" />
    <path
       style="fill:#ececec;stroke:#000000;stroke-width:0.15465237"
       d="m 94.712375,201.84939 c -2.83432,-0.80135 -4.23401,-3.94633 -2.92351,-6.56887 0.86433,-1.72968 2.23786,-2.57973 4.16837,-2.57973 1.93052,0 3.30405,0.85005 4.168385,2.57973 1.48102,2.9638 -0.482235,6.41605 -3.806015,6.69261 -0.51171,0.0426 -1.20881,-0.0111 -1.60723,-0.12374 z"
       id="path460"
       inkscape:connector-curvature="0" />
    <path
       style="fill:#ececec;stroke:#000000;stroke-width:0.15465237"
       d="m 113.92974,204.93491 c -2.83431,-0.80135 -4.234,-3.94633 -2.9235,-6.56887 0.86433,-1.72968 2.23785,-2.57973 4.16837,-2.57973 1.93051,0 3.30404,0.85005 4.16837,2.57973 1.48103,2.96379 -0.48222,6.41604 -3.806,6.69261 -0.51172,0.0426 -1.20881,-0.0111 -1.60724,-0.12374 z"
       id="path462"
       inkscape:connector-curvature="0" />
    <path
       style="fill:#ececec;stroke:#000000;stroke-width:0.15465237"
       d="m 139.19078,218.3492 c -2.83432,-0.80135 -4.234,-3.94633 -2.92351,-6.56887 0.86433,-1.72968 2.23786,-2.57973 4.16838,-2.57973 1.93051,0 3.30404,0.85005 4.16837,2.57973 1.48103,2.96379 -0.48223,6.41604 -3.806,6.69261 -0.51172,0.0426 -1.20882,-0.0111 -1.60724,-0.12374 z"
       id="path464"
       inkscape:connector-curvature="0" />
    <path
       style="fill:#ececec;stroke:#000000;stroke-width:0.15465237"
       d="m 150.69654,233.24383 c -2.83432,-0.80136 -4.23401,-3.94634 -2.92351,-6.56888 0.86433,-1.72968 2.23786,-2.57973 4.16837,-2.57973 1.93052,0 3.30404,0.85005 4.16837,2.57973 1.48103,2.9638 -0.48222,6.41605 -3.806,6.69261 -0.51172,0.0426 -1.20881,-0.0111 -1.60723,-0.12373 z"
       id="path466"
       inkscape:connector-curvature="0" />
    <path
       style="fill:#ececec;stroke:#000000;stroke-width:0.15465237"
       d="m 154.87215,254.1219 c -2.83432,-0.80136 -4.234,-3.94634 -2.9235,-6.56888 0.86433,-1.72968 2.23785,-2.57973 4.16837,-2.57973 1.93051,0 3.30404,0.85005 4.16837,2.57973 1.48103,2.9638 -0.48222,6.41605 -3.806,6.69261 -0.51172,0.0426 -1.20882,-0.0111 -1.60724,-0.12373 z"
       id="path468"
       inkscape:connector-curvature="0" />
    <path
       style="fill:#ececec;stroke:#000000;stroke-width:0.15465237"
       d="m 150.38723,275.30928 c -2.83432,-0.80136 -4.234,-3.94635 -2.9235,-6.56889 0.86433,-1.72967 2.23785,-2.57972 4.16837,-2.57972 1.93051,0 3.30404,0.85005 4.16837,2.57972 1.48103,2.96381 -0.48222,6.41606 -3.806,6.69262 -0.51172,0.0426 -1.20881,-0.0111 -1.60724,-0.12373 z"
       id="path470"
       inkscape:connector-curvature="0" />
    <path
       style="fill:#ececec;stroke:#000000;stroke-width:0.15465237"
       d="m 138.31416,286.99353 c -0.99182,-0.38126 -2.01671,-1.35231 -2.51206,-2.3801 -0.55751,-1.15675 -0.53975,-2.78587 0.0434,-3.97769 1.4411,-2.94551 5.45205,-3.56687 7.6095,-1.17883 0.8898,0.9849 1.22669,1.86746 1.23043,3.22336 0.003,0.92298 -0.0743,1.31734 -0.3761,1.93071 -1.10177,2.23905 -3.6913,3.26817 -5.99513,2.38255 z"
       id="path472"
       inkscape:connector-curvature="0" />
    <path
       style="fill:#ececec;stroke:#000000;stroke-width:0.15465237"
       d="m 113.14913,285.29182 c -0.72295,-0.23573 -1.14391,-0.50994 -1.88732,-1.22941 -1.26219,-1.22154 -1.69075,-3.14722 -1.09216,-4.90743 0.35248,-1.03652 1.70891,-2.39294 2.74543,-2.74542 1.80444,-0.61363 3.56189,-0.21101 4.89412,1.12123 1.36472,1.36472 1.7539,3.17723 1.07297,4.99717 -0.33614,0.89842 -1.40032,2.05603 -2.32165,2.52549 -0.60076,0.30611 -2.74428,0.45589 -3.41139,0.23837 z"
       id="path474"
       inkscape:connector-curvature="0" />
    <rect
       style="fill:#5599ff;stroke:#000000;stroke-width:0.5;stroke-miterlimit:4;stroke-dasharray:none"
       id="rect267"
       width="13"
       height="13"
       x="138.5806"
       y="267.74557"
       transform="rotate(3.6995475)" />
    <path
       style="fill:none;stroke:#000000;stroke-width:0.5;stroke-linecap:butt;stroke-linejoin:miter;stroke-miterlimit:4;stroke-dasharray:none;stroke-opacity:1"
       d="m 120.17686,289.10238 13.81172,-12.13409"
       id="path286"
       inkscape:connector-curvature="0" />
    <path
       style="fill:#ff5555;stroke:#000000;stroke-width:0.5;stroke-miterlimit:4;stroke-dasharray:none"
       d="m 120.75402,282.51788 0.40308,-6.23393 6.24073,0.40352 6.24073,0.40352 -6.63697,5.83085 c -3.65033,3.20697 -6.64004,5.83065 -6.64381,5.83041 -0.004,-2.4e-4 0.17455,-2.80571 0.39624,-6.23437 z"
       id="path288"
       inkscape:connector-curvature="0" />
    <rect
       style="fill:#5599ff;stroke:#000000;stroke-width:0.5;stroke-miterlimit:4;stroke-dasharray:none"
       id="rect267-8"
       width="13"
       height="13"
       x="211.65393"
       y="100.14771"
       transform="rotate(32.12484)" />
    <path
       style="fill:none;stroke:#000000;stroke-width:0.5;stroke-linecap:butt;stroke-linejoin:miter;stroke-miterlimit:4;stroke-dasharray:none;stroke-opacity:1"
       d="m 119.07982,208.37414 17.92255,-4.09663"
       id="path286-0"
       inkscape:connector-curvature="0" />
    <path
       style="fill:#ff5555;stroke:#000000;stroke-width:0.5;stroke-miterlimit:4;stroke-dasharray:none"
       d="m 122.72171,202.85821 3.32191,-5.29048 5.29626,3.32553 5.29625,3.32554 -8.61236,1.96859 c -4.73679,1.08273 -8.61497,1.96696 -8.61816,1.96496 -0.003,-0.002 1.48905,-2.38437 3.31611,-5.29414 z"
       id="path288-2"
       inkscape:connector-curvature="0" />
    <rect
       style="fill:#5599ff;stroke:#000000;stroke-width:0.5;stroke-miterlimit:4;stroke-dasharray:none"
       id="rect267-84"
       width="13"
       height="13"
       x="-58.758072"
       y="196.4008"
       transform="rotate(-25.007473)" />
    <path
       style="fill:none;stroke:#000000;stroke-width:0.5;stroke-linecap:butt;stroke-linejoin:miter;stroke-miterlimit:4;stroke-dasharray:none;stroke-opacity:1"
       d="m 35.271691,214.60921 6.28571,-17.27686"
       id="path286-7"
       inkscape:connector-curvature="0" />
    <path
       style="fill:#ff5555;stroke:#000000;stroke-width:0.5;stroke-miterlimit:4;stroke-dasharray:none"
       d="m 32.615174,208.5568 -2.640811,-5.66131 5.667485,-2.64369 5.667487,-2.6437 -3.020461,8.30211 c -1.661253,4.56616 -3.023255,8.30341 -3.026674,8.305 -0.0034,0.002 -1.194576,-2.54469 -2.647023,-5.65841 z"
       id="path288-5"
       inkscape:connector-curvature="0" />
    <rect
       style="fill:#5599ff;stroke:#000000;stroke-width:0.5;stroke-miterlimit:4;stroke-dasharray:none"
       id="rect267-4"
       width="13"
       height="13"
       x="16.739956"
       y="278.91599"
       transform="rotate(-3.5402538)" />
    <path
       style="fill:none;stroke:#000000;stroke-width:0.5;stroke-linecap:butt;stroke-linejoin:miter;stroke-miterlimit:4;stroke-dasharray:none;stroke-opacity:1"
       d="M 34.733754,290.32521 46.906198,276.54727"
       id="path286-8"
       inkscape:connector-curvature="0" />
    <path
       style="fill:#ff5555;stroke:#000000;stroke-width:0.5;stroke-miterlimit:4;stroke-dasharray:none"
       d="m 34.476526,283.72047 -0.385747,-6.23502 6.241823,-0.38617 6.241827,-0.38617 -5.849234,6.62077 c -3.21708,3.64142 -5.852313,6.62096 -5.856079,6.6212 -0.0038,2.3e-4 -0.180426,-2.80534 -0.392587,-6.23461 z"
       id="path288-53"
       inkscape:connector-curvature="0" />
    <path
       style="fill:#ececec;stroke:#000000;stroke-width:0.5;stroke-miterlimit:4;stroke-dasharray:none"
       d="m 24.349142,217.86605 c -1.805255,-0.64942 -3.040343,-2.39671 -3.036613,-4.29592 0.0039,-1.98632 1.406311,-3.87092 3.244768,-4.36043 1.079918,-0.28754 2.625357,-0.11041 3.582675,0.41063 0.913601,0.49724 1.785779,1.71114 2.102155,2.92579 0.601218,2.30823 -0.857155,4.7496 -3.213828,5.38006 -0.710189,0.18999 -2.068618,0.15951 -2.679157,-0.0601 z"
       id="path251"
       inkscape:connector-curvature="0" />
    <path
       style="fill:#ececec;stroke:#000000;stroke-width:0.5;stroke-miterlimit:4;stroke-dasharray:none"
       d="m 139.0285,218.15481 c -1.35281,-0.43246 -2.43128,-1.52509 -2.91274,-2.95099 -0.16669,-0.49369 -0.19572,-0.7629 -0.16639,-1.54297 0.0312,-0.82914 0.0735,-1.02584 0.34561,-1.60503 0.87754,-1.86813 2.14146,-2.69589 4.11251,-2.69333 0.98868,0.001 1.62725,0.1459 2.32775,0.52716 1.04064,0.56639 1.95941,1.96557 2.18407,3.32609 0.3629,2.19772 -1.21501,4.51355 -3.42203,5.02235 -0.65864,0.15184 -1.86006,0.11131 -2.46878,-0.0833 z"
       id="path261"
       inkscape:connector-curvature="0" />
    <path
       style="fill:#ececec;stroke:#000000;stroke-width:0.5;stroke-miterlimit:4;stroke-dasharray:none"
       d="m 50.615939,204.97157 c -0.542557,-0.0854 -1.274482,-0.38322 -1.773216,-0.72161 -0.313089,-0.21244 -0.878221,-0.77029 -1.114891,-1.10053 -0.976918,-1.36318 -1.127826,-3.19253 -0.385426,-4.67226 0.71828,-1.43166 1.784704,-2.24395 3.257492,-2.48124 0.536778,-0.0865 1.6116,-0.04 2.112721,0.0914 1.297578,0.34022 2.310307,1.25034 2.887364,2.5948 0.303715,0.70762 0.353541,0.97073 0.350385,1.85027 -0.0026,0.70767 -0.01453,0.81784 -0.13004,1.19449 -0.23767,0.77499 -0.595363,1.37579 -1.153539,1.93754 -0.591433,0.59523 -1.308478,1.00616 -2.124024,1.21725 -0.42849,0.11091 -1.481043,0.16 -1.926826,0.0899 z"
       id="path380"
       inkscape:connector-curvature="0" />
    <path
       style="fill:#ececec;stroke:#000000;stroke-width:0.5;stroke-miterlimit:4;stroke-dasharray:none"
       d="m 69.324306,202.12013 c -0.750593,-0.14296 -1.548937,-0.57073 -2.167276,-1.16126 -0.933119,-0.89117 -1.410031,-1.98786 -1.418211,-3.26128 -0.0044,-0.68261 0.08071,-1.12981 0.330708,-1.73782 0.805296,-1.95858 2.352423,-2.93021 4.506827,-2.8304 1.187154,0.055 2.095331,0.4322 2.844565,1.18143 1.423141,1.42314 1.819214,3.56844 0.98017,5.30899 -0.574074,1.19089 -1.671841,2.08695 -2.97429,2.4278 -0.502933,0.13161 -1.594561,0.16928 -2.102493,0.0725 z"
       id="path382"
       inkscape:connector-curvature="0" />
    <path
       style="fill:#ececec;stroke:#000000;stroke-width:0.5;stroke-miterlimit:4;stroke-dasharray:none"
       d="m 95.287535,201.84941 c -1.458468,-0.16886 -2.819117,-1.1899 -3.473722,-2.6067 -0.315556,-0.68299 -0.378235,-1.00039 -0.37509,-1.89947 0.0026,-0.73361 0.01384,-0.83914 0.130157,-1.21811 0.301509,-0.98234 0.927857,-1.92407 1.650516,-2.4816 0.818369,-0.63136 2.032703,-0.93599 3.247189,-0.81457 1.084402,0.10841 1.91947,0.47342 2.584825,1.12984 1.11195,1.09701 1.66368,2.71121 1.41104,4.12822 -0.35981,2.01807 -1.939913,3.51552 -3.971106,3.7634 -0.477549,0.0583 -0.693266,0.0581 -1.203809,-0.001 z"
       id="path384"
       inkscape:connector-curvature="0" />
    <path
       style="fill:#ececec;stroke:#000000;stroke-width:0.5;stroke-miterlimit:4;stroke-dasharray:none"
       d="m 114.39686,204.92696 c -1.14828,-0.16879 -2.31615,-0.92431 -2.99302,-1.93624 -0.99903,-1.49357 -1.05331,-3.31745 -0.14502,-4.87266 0.64631,-1.10663 1.47612,-1.76641 2.61943,-2.08267 0.33047,-0.0914 0.49378,-0.10456 1.29929,-0.10456 0.80449,0 0.96925,0.0132 1.2993,0.10429 1.24279,0.34289 2.13208,1.11007 2.776,2.3948 1.21275,2.41965 0.0452,5.32826 -2.51366,6.26213 -0.66927,0.24426 -1.626,0.3402 -2.34232,0.23491 z"
       id="path386"
       inkscape:connector-curvature="0" />
    <path
       style="fill:#ececec;stroke:#000000;stroke-width:0.5;stroke-miterlimit:4;stroke-dasharray:none"
       d="m 151.30494,233.25089 c -1.2084,-0.13798 -2.4161,-0.88479 -3.12796,-1.93425 -0.91062,-1.34249 -1.0458,-3.0292 -0.35898,-4.47909 0.61397,-1.29612 1.49828,-2.09913 2.69288,-2.44531 0.81455,-0.23605 1.86763,-0.25258 2.71789,-0.0427 1.23566,0.30507 2.21661,1.16628 2.83746,2.49113 0.33116,0.70669 0.39935,1.03456 0.39935,1.92011 0,0.87082 -0.0664,1.20162 -0.37538,1.87039 -0.8314,1.79945 -2.75346,2.85168 -4.78526,2.61969 z"
       id="path388"
       inkscape:connector-curvature="0" />
    <path
       style="fill:#ececec;stroke:#000000;stroke-width:0.5;stroke-miterlimit:4;stroke-dasharray:none"
       d="m 155.51737,254.12983 c -1.72087,-0.16704 -3.25715,-1.48494 -3.78162,-3.2441 -0.153,-0.51321 -0.20766,-1.48485 -0.11341,-2.0161 0.2688,-1.51498 1.3554,-2.94022 2.63599,-3.45747 0.69112,-0.27916 1.56578,-0.39508 2.35745,-0.31244 0.65958,0.0688 1.03145,0.16476 1.52438,0.39313 0.64594,0.29926 1.16243,0.74159 1.61975,1.38719 0.99668,1.40701 1.19275,3.05216 0.54291,4.55525 -0.20929,0.48409 -0.4604,0.85257 -0.88421,1.29751 -0.77807,0.81685 -1.69904,1.26798 -2.85071,1.3964 -0.49209,0.0549 -0.49166,0.0549 -1.05053,5.3e-4 z"
       id="path390"
       inkscape:connector-curvature="0" />
    <path
       style="fill:#ececec;stroke:#000000;stroke-width:0.5;stroke-miterlimit:4;stroke-dasharray:none"
       d="m 150.70756,275.27084 c -1.3836,-0.24995 -2.70197,-1.32136 -3.26069,-2.64988 -0.28036,-0.66666 -0.3369,-0.97047 -0.3369,-1.8103 0,-0.88458 0.0683,-1.21359 0.3977,-1.91658 0.61676,-1.31614 1.55253,-2.13409 2.84308,-2.48514 0.3499,-0.0952 0.50421,-0.10788 1.29493,-0.10663 0.77801,0.001 0.94809,0.0154 1.27567,0.1059 1.1873,0.32818 2.08364,1.06555 2.70966,2.22909 1.34676,2.50313 0.16018,5.54294 -2.52067,6.45755 -0.72261,0.24652 -1.6403,0.31374 -2.40278,0.17599 z"
       id="path392"
       inkscape:connector-curvature="0" />
    <path
       style="fill:#ececec;stroke:#000000;stroke-width:0.5;stroke-miterlimit:4;stroke-dasharray:none"
       d="m 139.1911,287.13501 c -0.85562,-0.16244 -1.58616,-0.54383 -2.25057,-1.17496 -0.64206,-0.60989 -1.04165,-1.23812 -1.26757,-1.99285 -0.17855,-0.59646 -0.21318,-1.58991 -0.0782,-2.24295 0.35679,-1.72608 1.66863,-3.06177 3.44275,-3.50531 0.53893,-0.13474 1.56872,-0.14691 2.05967,-0.0243 1.6342,0.40795 2.92077,1.64566 3.35025,3.22302 0.0883,0.32442 0.1035,0.50853 0.10706,1.2993 0.004,0.89414 9e-5,0.93362 -0.13261,1.33853 -0.46822,1.42854 -1.73849,2.59906 -3.26504,3.00865 -0.49573,0.13302 -1.45614,0.16766 -1.96574,0.0709 z"
       id="path394"
       inkscape:connector-curvature="0" />
    <path
       style="fill:#ececec;stroke:#000000;stroke-width:0.5;stroke-miterlimit:4;stroke-dasharray:none"
       d="m 113.62874,285.26772 c -0.71745,-0.0687 -1.39811,-0.43334 -2.15728,-1.15579 -0.45902,-0.43681 -0.86247,-0.98755 -1.07675,-1.46983 -0.30784,-0.69283 -0.4539,-1.69396 -0.35521,-2.43461 0.14706,-1.10373 0.47505,-1.74646 1.32497,-2.59638 0.94545,-0.94545 1.72921,-1.30145 2.97968,-1.35342 0.8717,-0.0362 1.45367,0.0876 2.19699,0.46741 1.06219,0.54278 1.99498,1.62559 2.35328,2.73177 0.42725,1.31902 0.18182,2.86523 -0.62367,3.92926 -0.37036,0.48924 -0.74037,0.86724 -1.15688,1.1819 -0.47882,0.36173 -0.74767,0.4855 -1.25781,0.57908 -0.35551,0.0652 -1.60778,0.17776 -1.79539,0.16136 -0.039,-0.003 -0.23334,-0.0217 -0.43193,-0.0408 z"
       id="path396"
       inkscape:connector-curvature="0" />
    <path
       style="fill:#ececec;stroke:#000000;stroke-width:0.5;stroke-miterlimit:4;stroke-dasharray:none"
       d="m 53.038184,285.2166 c -0.290158,-0.0569 -1.001271,-0.41954 -1.375474,-0.70149 -0.803407,-0.60535 -1.468181,-1.52673 -1.757606,-2.43604 -0.09245,-0.29045 -0.104153,-0.42029 -0.09613,-1.06618 0.02058,-1.65667 0.288232,-2.39775 1.194363,-3.30702 1.477553,-1.48268 3.351668,-1.88096 5.089401,-1.08159 0.525261,0.24162 0.867198,0.47548 1.304565,0.89223 0.487786,0.46479 0.753785,0.82498 1.03169,1.39702 0.347726,0.71575 0.432255,1.08995 0.432255,1.9135 0,0.79895 -0.08393,1.1908 -0.39393,1.83925 -0.251158,0.52536 -0.546981,0.93443 -1.0164,1.4055 -0.652314,0.65461 -1.257326,0.98152 -2.082937,1.1255 -0.449136,0.0783 -1.96465,0.0909 -2.329799,0.0193 z"
       id="path398"
       inkscape:connector-curvature="0" />
    <path
       style="fill:#ececec;stroke:#000000;stroke-width:0.5;stroke-miterlimit:4;stroke-dasharray:none"
       d="m 26.712539,287.13444 c -0.916937,-0.17345 -1.611226,-0.55194 -2.33586,-1.27342 -0.772869,-0.7695 -1.190665,-1.52463 -1.302632,-2.35441 -0.07377,-0.54671 -0.02372,-1.61455 0.09792,-2.08899 0.276715,-1.07931 1.177022,-2.22182 2.192563,-2.78242 1.71732,-0.94799 3.943114,-0.62716 5.372599,0.77442 0.62869,0.61642 1.016998,1.2627 1.234858,2.05524 0.143902,0.5235 0.156321,1.85882 0.02196,2.36236 -0.200848,0.75275 -0.647629,1.49029 -1.251101,2.06528 -0.607319,0.57865 -1.303621,0.97039 -2.086065,1.17361 -0.516681,0.1342 -1.426903,0.16619 -1.944254,0.0683 z"
       id="path400"
       inkscape:connector-curvature="0" />
    <path
       style="fill:#ececec;stroke:#000000;stroke-width:0.5;stroke-miterlimit:4;stroke-dasharray:none"
       d="m 16.112709,272.86668 c -1.692969,-0.31519 -3.047629,-1.62648 -3.527655,-3.41474 -0.150661,-0.56126 -0.141878,-1.5334 0.01933,-2.13994 0.361628,-1.36058 1.280154,-2.52216 2.405587,-3.04214 0.662528,-0.30611 1.043523,-0.37819 2.000428,-0.37846 1.012726,-2.7e-4 1.445766,0.0859 2.126116,0.42327 1.081061,0.53606 1.977376,1.705 2.319066,3.02444 0.173973,0.6718 0.173882,1.49962 -2.36e-4,2.17226 -0.451092,1.74261 -1.867998,3.0439 -3.653338,3.35524 -0.483877,0.0844 -1.236263,0.0844 -1.6893,4e-5 z"
       id="path402"
       inkscape:connector-curvature="0" />
    <path
       style="fill:#ececec;stroke:#000000;stroke-width:0.5;stroke-miterlimit:4;stroke-dasharray:none"
       d="m 12.928721,254.12861 c -1.099914,-0.10604 -2.218241,-0.72864 -2.9398095,-1.63666 -1.1099856,-1.3968 -1.3305613,-3.20083 -0.5840453,-4.77674 0.511573,-1.07994 1.1926378,-1.79989 2.1013498,-2.22132 1.353191,-0.62756 3.165232,-0.55002 4.411243,0.18877 0.92022,0.54562 1.733694,1.70045 2.041571,2.89828 0.111083,0.43217 0.11958,0.53291 0.09963,1.18117 -0.01655,0.5376 -0.04653,0.79349 -0.124181,1.05988 -0.533942,1.83171 -2.037811,3.0921 -3.947883,3.30872 -0.467438,0.053 -0.486689,0.053 -1.057872,-0.002 z"
       id="path404"
       inkscape:connector-curvature="0" />
    <path
       style="fill:#ececec;stroke:#000000;stroke-width:0.5;stroke-miterlimit:4;stroke-dasharray:none"
       d="m 15.334122,233.24335 c -1.410094,-0.16325 -2.731149,-1.11739 -3.407714,-2.46123 -0.51731,-1.02751 -0.618241,-2.37146 -0.257622,-3.43037 0.415421,-1.21984 1.268799,-2.24585 2.265189,-2.72343 1.188837,-0.56982 3.021276,-0.56739 4.154013,0.005 1.604888,0.81169 2.663159,2.79544 2.451891,4.59613 -0.214234,1.82596 -1.434072,3.29196 -3.198747,3.84424 -0.635235,0.1988 -1.280953,0.25323 -2.00701,0.16917 z"
       id="path406"
       inkscape:connector-curvature="0" />
    <text
       xml:space="preserve"
       style="font-style:normal;font-weight:normal;font-size:10.58333302px;line-height:1.25;font-family:sans-serif;letter-spacing:0px;word-spacing:0px;fill:#000000;fill-opacity:1;stroke:none;stroke-width:0.26458332"
       x="37.194557"
       y="335.51462"
       id="text4808"><tspan
         sodipodi:role="line"
         id="tspan4806"
         x="37.194557"
         y="335.51462"
         style="stroke-width:0.26458332">Temperature Actuators</tspan></text>
    <text
       xml:space="preserve"
       style="font-style:normal;font-weight:normal;font-size:10.58333302px;line-height:1.25;font-family:sans-serif;letter-spacing:0px;word-spacing:0px;fill:#000000;fill-opacity:1;stroke:none;stroke-width:0.26458332"
       x="37.0602"
       y="352.68497"
       id="text4812"><tspan
         sodipodi:role="line"
         id="tspan4810"
         x="37.0602"
         y="352.68497"
         style="stroke-width:0.26458332">Vibration Actuators</tspan></text>
    <rect
       style="fill:#ffdd55;stroke:#000000;stroke-width:0.5;stroke-miterlimit:4;stroke-dasharray:none"
       id="rect4814"
       width="13.575757"
       height="13.575758"
       x="18.460569"
       y="309.93118"
       rx="2.5454545"
       ry="2.5454545" />
    <rect
       style="fill:#e9afaf;stroke:#000000;stroke-width:0.5;stroke-miterlimit:4;stroke-dasharray:none"
       id="rect4814-1"
       width="13.575757"
       height="13.575758"
       x="18.460569"
       y="325.94397"
       rx="2.5454547"
       ry="2.5454547" />
    <rect
       style="fill:#ececec;stroke:#000000;stroke-width:0.5;stroke-miterlimit:4;stroke-dasharray:none"
       id="rect4814-3"
       width="13.575757"
       height="13.575758"
       x="18.460569"
       y="341.95676"
       rx="2.5454547"
       ry="2.5454547" />
    <path
       style="fill:none;stroke:#000000;stroke-width:0.5;stroke-linecap:butt;stroke-linejoin:miter;stroke-miterlimit:4;stroke-dasharray:none;stroke-opacity:1"
       d="M 31.296065,326.91644 19.01184,338.44471"
       id="path8540"
       inkscape:connector-curvature="0" />
    <path
       style="fill:#ff5555;stroke:#000000;stroke-width:0.06313454;stroke-miterlimit:4;stroke-dasharray:none"
       d="m 18.914761,337.87077 c -0.194464,-0.46595 -0.186574,-0.24863 -0.18648,-5.13638 9.6e-5,-5.03409 -0.01388,-4.7353 0.246179,-5.26187 0.260968,-0.5284 0.683265,-0.90588 1.263717,-1.1296 l 0.276395,-0.10652 4.635659,-0.009 c 5.174805,-0.0101 4.84296,-0.0241 5.353539,0.22629 0.146998,0.0721 0.324893,0.18062 0.39532,0.24116 l 0.12805,0.11007 -5.855392,5.49546 c -3.220466,3.0225 -5.926162,5.55926 -6.01266,5.63724 l -0.157268,0.14178 z"
       id="path8542"
       inkscape:connector-curvature="0" />
    <path
       style="fill:#5599ff;stroke:#000000;stroke-width:0.06313454;stroke-miterlimit:4;stroke-dasharray:none"
       d="m 20.497868,339.19742 c -0.119437,-0.0258 -0.337428,-0.10671 -0.484427,-0.17977 -0.293976,-0.14613 -0.698284,-0.45484 -0.665386,-0.50807 0.06071,-0.0982 12.01768,-11.28536 12.044348,-11.26888 0.06366,0.0393 0.23686,0.42952 0.299653,0.67503 0.06225,0.24339 0.06452,0.41448 0.06405,4.81565 -5.29e-4,5.08887 0.01413,4.76232 -0.236944,5.27107 -0.252204,0.51104 -0.725623,0.92285 -1.295427,1.12685 l -0.287906,0.10308 -4.610401,0.006 c -3.850504,0.005 -4.646191,-0.002 -4.827555,-0.041 z"
       id="path8544"
       inkscape:connector-curvature="0" />
    <text
       xml:space="preserve"
       style="font-style:normal;font-weight:normal;font-size:10.58333302px;line-height:1.25;font-family:sans-serif;letter-spacing:0px;word-spacing:0px;fill:#000000;fill-opacity:1;stroke:none;stroke-width:0.26458332"
       x="36.16103"
       y="320.55603"
       id="text8702"><tspan
         sodipodi:role="line"
         id="tspan8700"
         x="36.16103"
         y="320.55603"
         style="stroke-width:0.26458332">EMS Actuators</tspan></text>
  </g>
</svg>
