<?xml version="1.0" encoding="UTF-8" standalone="no"?>
<!-- Created with Inkscape (http://www.inkscape.org/) -->

<svg
   xmlns:dc="http://purl.org/dc/elements/1.1/"
   xmlns:cc="http://creativecommons.org/ns#"
   xmlns:rdf="http://www.w3.org/1999/02/22-rdf-syntax-ns#"
   xmlns:svg="http://www.w3.org/2000/svg"
   xmlns="http://www.w3.org/2000/svg"
   xmlns:sodipodi="http://sodipodi.sourceforge.net/DTD/sodipodi-0.dtd"
   xmlns:inkscape="http://www.inkscape.org/namespaces/inkscape"
   width="858.13812mm"
   height="113.85216mm"
   viewBox="0 0 858.1381 113.85215"
   version="1.1"
   id="svg8"
   inkscape:version="0.92.3 (2405546, 2018-03-11)"
   sodipodi:docname="two-alternative-forced-choice-2.svg">
  <defs
     id="defs2" />
  <sodipodi:namedview
     id="base"
     pagecolor="#ffffff"
     bordercolor="#666666"
     borderopacity="1.0"
     inkscape:pageopacity="0.0"
     inkscape:pageshadow="2"
     inkscape:zoom="0.35"
     inkscape:cx="1747.1449"
     inkscape:cy="179.54374"
     inkscape:document-units="mm"
     inkscape:current-layer="layer1"
     showgrid="false"
     inkscape:window-width="2560"
     inkscape:window-height="1315"
     inkscape:window-x="-13"
     inkscape:window-y="-13"
     inkscape:window-maximized="1" />
  <metadata
     id="metadata5">
    <rdf:RDF>
      <cc:Work
         rdf:about="">
        <dc:format>image/svg+xml</dc:format>
        <dc:type
           rdf:resource="http://purl.org/dc/dcmitype/StillImage" />
        <dc:title />
      </cc:Work>
    </rdf:RDF>
  </metadata>
  <g
     inkscape:label="Layer 1"
     inkscape:groupmode="layer"
     id="layer1"
     transform="translate(-41.969257,484.76146)">
    <g
       id="g9569"
       transform="translate(189.552,-8.57007)">
      <path
         sodipodi:nodetypes="aaaaaasaaaaaa"
         inkscape:connector-curvature="0"
         id="path14-6"
         d="m 106.24368,-371.31036 c -11.785106,11.78511 -38.214886,11.78511 -49.999996,0 -18.85618,-18.85618 -18.85618,-61.14382 0,-80 32.99831,-32.99832 107.001676,-32.99832 139.999996,0 18.85618,18.85618 18.85618,61.14382 0,80 -11.78511,11.78511 -38.21489,11.78511 -50,0 -4.49581,-4.4958 -4.47567,-14.55823 0,-19.07408 7.01751,-7.0805 22.87978,6.80508 29.90551,-0.26727 9.55162,-9.61499 9.66671,-31.06416 0.0945,-40.65865 -23.54283,-23.5976 -76.429776,-23.57023 -99.999996,0 -9.42809,9.42809 -9.42809,30.57191 0,40 7.07107,7.07107 22.92893,-7.07107 29.999996,0 4.71404,4.71405 4.71404,15.28595 0,20 z"
         style="fill:none;stroke:#000000;stroke-width:0.26458332px;stroke-linecap:butt;stroke-linejoin:miter;stroke-opacity:1" />
      <path
         inkscape:connector-curvature="0"
         id="path366-9"
         d="m 77.214043,-362.83558 c -9.270526,-0.8729 -16.962133,-4.27804 -21.814165,-9.65731 -5.239893,-5.80928 -8.899237,-13.02466 -11.060279,-21.80833 -2.009352,-8.16711 -2.535039,-16.97196 -1.527898,-25.59105 1.31132,-11.22225 5.17701,-21.17544 11.055125,-28.46421 1.361985,-1.68883 4.504995,-4.79027 6.722258,-6.63333 5.632085,-4.68156 11.978468,-8.54043 19.364473,-11.77439 19.306426,-8.45333 44.021113,-11.20544 66.817373,-7.44047 20.25794,3.34575 37.44686,11.31226 48.85115,22.64096 2.31786,2.30249 3.1898,3.3181 4.76126,5.54584 8.05668,11.42134 11.5004,28.91921 8.98158,45.63627 -2.07659,13.78206 -8.30649,25.73519 -16.45724,31.57604 -3.72802,2.67151 -8.97876,4.68202 -14.53213,5.56437 -5.01285,0.79647 -10.94433,0.69704 -15.787,-0.26465 -6.77843,-1.3461 -12.79531,-4.35859 -16.38701,-8.20454 -3.00392,-3.21657 -3.97232,-9.2597 -2.29184,-14.30181 1.10025,-3.30118 3.1244,-5.39427 5.8346,-6.03332 1.18424,-0.27924 3.9909,-0.17761 5.80859,0.21034 0.71413,0.15241 3.26989,0.83957 5.67948,1.52701 5.38996,1.53775 7.00734,1.8638 9.25873,1.86652 2.74321,0.003 4.28524,-0.58301 5.95804,-2.26545 7.52492,-7.56828 9.37654,-23.71984 3.99803,-34.87474 -1.79503,-3.72288 -4.424,-6.67862 -9.08744,-10.21699 -13.37831,-10.15074 -33.90553,-14.99078 -54.65661,-12.8873 -13.05857,1.32372 -25.439012,5.64601 -34.308924,11.97802 -3.879811,2.7697 -7.086256,5.8059 -8.702188,8.24014 -6.271869,9.44797 -6.270324,24.85633 0.0034,34.3139 2.530518,3.8147 4.528897,5.04043 8.195805,5.02702 2.339554,-0.009 4.004688,-0.37071 10.075656,-2.19136 4.207613,-1.26184 6.14445,-1.68782 8.165491,-1.7959 3.31717,-0.1774 5.50177,0.89259 7.20822,3.53049 2.32126,3.5883 2.89576,9.11398 1.40897,13.55175 -0.73539,2.195 -1.62145,3.60455 -3.20476,5.09816 -4.33109,4.08574 -10.79383,6.83785 -18.575456,7.91023 -1.816557,0.25034 -7.857259,0.36681 -9.755338,0.18809 z"
         style="fill:#cccccc;stroke:#000000;stroke-width:0.5;stroke-miterlimit:4;stroke-dasharray:none" />
      <rect
         ry="1.4999996"
         y="-450.47964"
         x="57.562622"
         height="15"
         width="15"
         id="rect358-1"
         style="fill:#ffdd55;stroke:#000000;stroke-width:0.5;stroke-miterlimit:4;stroke-dasharray:none" />
      <rect
         ry="1.4999996"
         y="-423.12732"
         x="48.582642"
         height="15"
         width="15"
         id="rect358-0-2"
         style="fill:#ffdd55;stroke:#000000;stroke-width:0.5;stroke-miterlimit:4;stroke-dasharray:none" />
    </g>
    <g
       id="g9563"
       transform="translate(-196.54762,-2.52246)">
      <path
         sodipodi:nodetypes="aaaaaasaaaaaa"
         inkscape:connector-curvature="0"
         id="path14-6-3"
         d="m 302.7913,-377.35797 c -11.78511,11.78511 -38.21489,11.78511 -50,0 -18.85618,-18.85618 -18.85618,-61.14382 0,-80 32.99831,-32.99832 107.00168,-32.99832 140,0 18.85618,18.85618 18.85618,61.14382 0,80 -11.78511,11.78511 -38.21489,11.78511 -50,0 -4.49581,-4.4958 -4.47567,-14.55823 0,-19.07408 7.01751,-7.0805 22.87978,6.80508 29.90551,-0.26727 9.55162,-9.61499 9.66671,-31.06416 0.0945,-40.65865 -23.54283,-23.5976 -76.42977,-23.57023 -100,0 -9.42809,9.42809 -9.42809,30.57191 0,40 7.07107,7.07107 22.92893,-7.07107 30,0 4.71404,4.71405 4.71404,15.28595 0,20 z"
         style="fill:none;stroke:#000000;stroke-width:0.26458332px;stroke-linecap:butt;stroke-linejoin:miter;stroke-opacity:1" />
      <path
         inkscape:connector-curvature="0"
         id="path366-9-6"
         d="m 273.76166,-368.88319 c -9.27052,-0.8729 -16.96213,-4.27804 -21.81416,-9.65731 -5.2399,-5.80928 -8.89924,-13.02466 -11.06028,-21.80833 -2.00935,-8.16711 -2.53504,-16.97196 -1.5279,-25.59105 1.31132,-11.22225 5.17701,-21.17544 11.05513,-28.46421 1.36198,-1.68883 4.50499,-4.79027 6.72225,-6.63333 5.63209,-4.68156 11.97847,-8.54043 19.36448,-11.77439 19.30642,-8.45333 44.02111,-11.20544 66.81737,-7.44047 20.25794,3.34575 37.44686,11.31226 48.85115,22.64096 2.31786,2.30249 3.1898,3.3181 4.76126,5.54584 8.05668,11.42134 11.5004,28.91921 8.98158,45.63627 -2.07659,13.78206 -8.30649,25.73519 -16.45724,31.57604 -3.72802,2.67151 -8.97876,4.68202 -14.53213,5.56437 -5.01285,0.79647 -10.94433,0.69704 -15.787,-0.26465 -6.77843,-1.3461 -12.79531,-4.35859 -16.38701,-8.20454 -3.00392,-3.21657 -3.97232,-9.2597 -2.29184,-14.30181 1.10025,-3.30118 3.1244,-5.39427 5.8346,-6.03332 1.18424,-0.27924 3.9909,-0.17761 5.80859,0.21034 0.71413,0.15241 3.26989,0.83957 5.67948,1.52701 5.38996,1.53775 7.00734,1.8638 9.25873,1.86652 2.74321,0.003 4.28524,-0.58301 5.95804,-2.26545 7.52492,-7.56828 9.37654,-23.71984 3.99803,-34.87474 -1.79503,-3.72288 -4.424,-6.67862 -9.08744,-10.21699 -13.37831,-10.15074 -33.90553,-14.99078 -54.65661,-12.8873 -13.05857,1.32372 -25.43901,5.64601 -34.30892,11.97802 -3.87981,2.7697 -7.08626,5.8059 -8.70219,8.24014 -6.27187,9.44797 -6.27033,24.85633 0.003,34.3139 2.53051,3.8147 4.52889,5.04043 8.1958,5.02702 2.33956,-0.009 4.00469,-0.37071 10.07566,-2.19136 4.20761,-1.26184 6.14445,-1.68782 8.16549,-1.7959 3.31717,-0.1774 5.50177,0.89259 7.20822,3.53049 2.32126,3.5883 2.89576,9.11398 1.40897,13.55175 -0.73539,2.195 -1.62145,3.60455 -3.20476,5.09816 -4.33109,4.08574 -10.79383,6.83785 -18.57546,7.91023 -1.81655,0.25034 -7.85726,0.36681 -9.75533,0.18809 z"
         style="fill:#cccccc;stroke:#000000;stroke-width:0.5;stroke-miterlimit:4;stroke-dasharray:none" />
      <rect
         ry="1.4999996"
         y="-456.52725"
         x="254.11024"
         height="15"
         width="15"
         id="rect358-1-7"
         style="fill:#ffdd55;stroke:#000000;stroke-width:0.5;stroke-miterlimit:4;stroke-dasharray:none" />
      <rect
         ry="1.4999996"
         y="-429.1749"
         x="245.13026"
         height="15"
         width="15"
         id="rect358-0-2-1"
         style="fill:#ffdd55;stroke:#000000;stroke-width:0.5;stroke-miterlimit:4;stroke-dasharray:none" />
      <path
         inkscape:connector-curvature="0"
         id="path448-9-0"
         d="m 254.29981,-392.48257 c -2.83431,-0.80136 -4.234,-3.94634 -2.9235,-6.56888 0.86433,-1.72968 2.23785,-2.57973 4.16837,-2.57973 1.93051,0 3.30404,0.85005 4.16837,2.57973 1.48103,2.9638 -0.48222,6.41605 -3.806,6.69261 -0.51172,0.0426 -1.20881,-0.0111 -1.60724,-0.12373 z"
         style="fill:#ececec;stroke:#000000;stroke-width:0.15465237" />
      <path
         inkscape:connector-curvature="0"
         id="path450-2-7"
         d="m 250.7999,-411.26452 c -2.83432,-0.80136 -4.234,-3.94634 -2.9235,-6.56888 0.86433,-1.72968 2.23785,-2.57973 4.16837,-2.57973 1.93051,0 3.30404,0.85005 4.16837,2.57973 1.48103,2.9638 -0.48222,6.41605 -3.806,6.69261 -0.51172,0.0426 -1.20881,-0.0111 -1.60724,-0.12373 z"
         style="fill:#ececec;stroke:#000000;stroke-width:0.15465237" />
      <path
         inkscape:connector-curvature="0"
         id="path402-2-6"
         d="m 254.62995,-392.51974 c -1.69297,-0.31519 -3.04763,-1.62648 -3.52765,-3.41474 -0.15066,-0.56126 -0.14188,-1.5334 0.0193,-2.13994 0.36163,-1.36058 1.28015,-2.52216 2.40558,-3.04214 0.66253,-0.30611 1.04353,-0.37819 2.00043,-0.37846 1.01273,-2.6e-4 1.44577,0.0859 2.12612,0.42327 1.08106,0.53606 1.97737,1.705 2.31906,3.02444 0.17398,0.6718 0.17389,1.49962 -2.3e-4,2.17226 -0.45109,1.74261 -1.868,3.0439 -3.65334,3.35524 -0.48388,0.0844 -1.23626,0.0844 -1.6893,4e-5 z"
         style="fill:#f9f9f9;stroke:#000000;stroke-width:0.5;stroke-miterlimit:4;stroke-dasharray:none" />
      <path
         inkscape:connector-curvature="0"
         id="path404-2-7"
         d="m 251.44596,-411.25781 c -1.09991,-0.10604 -2.21824,-0.72864 -2.9398,-1.63666 -1.10999,-1.3968 -1.33057,-3.20083 -0.58405,-4.77674 0.51157,-1.07994 1.19264,-1.79989 2.10135,-2.22132 1.35319,-0.62756 3.16523,-0.55002 4.41124,0.18877 0.92022,0.54562 1.7337,1.70045 2.04157,2.89828 0.11109,0.43217 0.11958,0.53291 0.0996,1.18117 -0.0165,0.5376 -0.0465,0.79349 -0.12418,1.05988 -0.53394,1.83171 -2.03781,3.0921 -3.94788,3.30872 -0.46744,0.053 -0.48669,0.053 -1.05787,-0.002 z"
         style="fill:#f2f2f2;stroke:#000000;stroke-width:0.5;stroke-miterlimit:4;stroke-dasharray:none" />
    </g>
    <path
       style="fill:none;stroke:#000000;stroke-width:0.26458332px;stroke-linecap:butt;stroke-linejoin:miter;stroke-opacity:1"
       d="m 606.28068,-379.88043 c -11.78511,11.78511 -38.21489,11.78511 -50,0 -18.85618,-18.85618 -18.85618,-61.14382 0,-80 32.99831,-32.99832 107.00167,-32.99832 139.99999,0 18.85619,18.85618 18.85619,61.14382 0,80 -11.7851,11.78511 -38.21489,11.78511 -50,0 -4.4958,-4.4958 -4.47566,-14.55823 0,-19.07408 7.01752,-7.0805 22.87978,6.80508 29.90551,-0.26727 9.55163,-9.61499 9.66672,-31.06416 0.0945,-40.65865 -23.54284,-23.5976 -76.42977,-23.57023 -100,0 -9.42809,9.42809 -9.42809,30.57191 0,40 7.07107,7.07107 22.92893,-7.07107 30,0 4.71404,4.71405 4.71404,15.28595 0,20 z"
       id="path14-6-3-0"
       inkscape:connector-curvature="0"
       sodipodi:nodetypes="aaaaaasaaaaaa" />
    <path
       style="fill:#cccccc;stroke:#000000;stroke-width:0.5;stroke-miterlimit:4;stroke-dasharray:none"
       d="m 577.25103,-371.40565 c -9.27051,-0.8729 -16.96212,-4.27804 -21.81415,-9.65731 -5.2399,-5.80928 -8.89924,-13.02466 -11.06028,-21.80833 -2.00935,-8.16711 -2.53504,-16.97196 -1.5279,-25.59105 1.31132,-11.22225 5.17701,-21.17544 11.05513,-28.46421 1.36198,-1.68883 4.50499,-4.79027 6.72225,-6.63333 5.63209,-4.68156 11.97847,-8.54043 19.36448,-11.77439 19.30642,-8.45333 44.02111,-11.20544 66.81737,-7.44047 20.25793,3.34575 37.44686,11.31226 48.85115,22.64096 2.31786,2.30249 3.1898,3.3181 4.76126,5.54584 8.05668,11.42134 11.5004,28.91921 8.98158,45.63627 -2.07659,13.78206 -8.3065,25.73519 -16.45724,31.57604 -3.72803,2.67151 -8.97876,4.68202 -14.53214,5.56437 -5.01284,0.79647 -10.94432,0.69704 -15.78699,-0.26465 -6.77843,-1.3461 -12.79532,-4.35859 -16.38702,-8.20454 -3.00391,-3.21657 -3.97232,-9.2597 -2.29184,-14.30181 1.10026,-3.30118 3.12441,-5.39427 5.8346,-6.03332 1.18424,-0.27924 3.99091,-0.17761 5.8086,0.21034 0.71412,0.15241 3.26989,0.83957 5.67948,1.52701 5.38995,1.53775 7.00734,1.8638 9.25873,1.86652 2.7432,0.003 4.28524,-0.58301 5.95803,-2.26545 7.52493,-7.56828 9.37654,-23.71984 3.99804,-34.87474 -1.79504,-3.72288 -4.424,-6.67862 -9.08744,-10.21699 -13.37831,-10.15074 -33.90553,-14.99078 -54.65661,-12.8873 -13.05857,1.32372 -25.43901,5.64601 -34.30892,11.97802 -3.87981,2.7697 -7.08626,5.8059 -8.7022,8.24014 -6.27186,9.44797 -6.27032,24.85633 0.003,34.3139 2.53052,3.8147 4.5289,5.04043 8.19581,5.02702 2.33956,-0.009 4.00469,-0.37071 10.07566,-2.19136 4.20761,-1.26184 6.14445,-1.68782 8.16549,-1.7959 3.31717,-0.1774 5.50177,0.89259 7.20822,3.53049 2.32126,3.5883 2.89576,9.11398 1.40897,13.55175 -0.73539,2.195 -1.62145,3.60455 -3.20477,5.09816 -4.33108,4.08574 -10.79382,6.83785 -18.57545,7.91023 -1.81655,0.25034 -7.85726,0.36681 -9.75533,0.18809 z"
       id="path366-9-6-1"
       inkscape:connector-curvature="0" />
    <rect
       style="fill:#ffdd55;stroke:#000000;stroke-width:0.5;stroke-miterlimit:4;stroke-dasharray:none"
       id="rect358-1-7-3"
       width="15"
       height="15"
       x="557.59961"
       y="-459.04974"
       ry="1.4999996" />
    <rect
       style="fill:#ffdd55;stroke:#000000;stroke-width:0.5;stroke-miterlimit:4;stroke-dasharray:none"
       id="rect358-0-2-1-6"
       width="15"
       height="15"
       x="548.61963"
       y="-431.69739"
       ry="1.4999996" />
    <path
       style="fill:none;stroke:#000000;stroke-width:0.26458332px;stroke-linecap:butt;stroke-linejoin:miter;stroke-opacity:1"
       d="m 795.83292,-379.88043 c -11.78511,11.78511 -38.21489,11.78511 -50,0 -18.85618,-18.85618 -18.85618,-61.14382 0,-80 32.99831,-32.99832 107.00168,-32.99832 140,0 18.85619,18.85618 18.85619,61.14382 0,80 -11.7851,11.78511 -38.21489,11.78511 -50,0 -4.49581,-4.4958 -4.47567,-14.55823 0,-19.07408 7.01752,-7.0805 22.87978,6.80508 29.90551,-0.26727 9.55163,-9.61499 9.66672,-31.06416 0.0945,-40.65865 -23.54284,-23.5976 -76.42978,-23.57023 -100.00001,0 -9.42809,9.42809 -9.42809,30.57191 0,40 7.07107,7.07107 22.92893,-7.07107 30,0 4.71404,4.71405 4.71404,15.28595 0,20 z"
       id="path14-6-3-01"
       inkscape:connector-curvature="0"
       sodipodi:nodetypes="aaaaaasaaaaaa" />
    <path
       style="fill:#cccccc;stroke:#000000;stroke-width:0.5;stroke-miterlimit:4;stroke-dasharray:none"
       d="m 766.80328,-371.40565 c -9.27052,-0.8729 -16.96213,-4.27804 -21.81416,-9.65731 -5.2399,-5.80928 -8.89924,-13.02466 -11.06028,-21.80833 -2.00935,-8.16711 -2.53504,-16.97196 -1.5279,-25.59105 1.31132,-11.22225 5.17701,-21.17544 11.05513,-28.46421 1.36198,-1.68883 4.50499,-4.79027 6.72225,-6.63333 5.63209,-4.68156 11.97847,-8.54043 19.36448,-11.77439 19.30642,-8.45333 44.02111,-11.20544 66.81738,-7.44047 20.25793,3.34575 37.44686,11.31226 48.85115,22.64096 2.31786,2.30249 3.1898,3.3181 4.76126,5.54584 8.05668,11.42134 11.5004,28.91921 8.98158,45.63627 -2.07659,13.78206 -8.3065,25.73519 -16.45724,31.57604 -3.72803,2.67151 -8.97876,4.68202 -14.53214,5.56437 -5.01284,0.79647 -10.94432,0.69704 -15.78699,-0.26465 -6.77843,-1.3461 -12.79532,-4.35859 -16.38702,-8.20454 -3.00391,-3.21657 -3.97232,-9.2597 -2.29184,-14.30181 1.10026,-3.30118 3.12441,-5.39427 5.8346,-6.03332 1.18424,-0.27924 3.99091,-0.17761 5.8086,0.21034 0.71412,0.15241 3.26989,0.83957 5.67948,1.52701 5.38995,1.53775 7.00734,1.8638 9.25873,1.86652 2.7432,0.003 4.28524,-0.58301 5.95803,-2.26545 7.52493,-7.56828 9.37654,-23.71984 3.99804,-34.87474 -1.79504,-3.72288 -4.424,-6.67862 -9.08744,-10.21699 -13.37831,-10.15074 -33.90554,-14.99078 -54.65662,-12.8873 -13.05857,1.32372 -25.43901,5.64601 -34.30892,11.97802 -3.87981,2.7697 -7.08626,5.8059 -8.70219,8.24014 -6.27187,9.44797 -6.27033,24.85633 0.003,34.3139 2.53051,3.8147 4.52889,5.04043 8.1958,5.02702 2.33956,-0.009 4.00469,-0.37071 10.07566,-2.19136 4.20761,-1.26184 6.14445,-1.68782 8.16549,-1.7959 3.31717,-0.1774 5.50177,0.89259 7.20822,3.53049 2.32126,3.5883 2.89576,9.11398 1.40897,13.55175 -0.73539,2.195 -1.62145,3.60455 -3.20476,5.09816 -4.33109,4.08574 -10.79383,6.83785 -18.57546,7.91023 -1.81655,0.25034 -7.85726,0.36681 -9.75533,0.18809 z"
       id="path366-9-6-0"
       inkscape:connector-curvature="0" />
    <rect
       style="fill:#ffdd55;stroke:#000000;stroke-width:0.5;stroke-miterlimit:4;stroke-dasharray:none"
       id="rect358-1-7-5"
       width="15"
       height="15"
       x="747.15186"
       y="-459.04971"
       ry="1.4999996" />
    <rect
       style="fill:#ffdd55;stroke:#000000;stroke-width:0.5;stroke-miterlimit:4;stroke-dasharray:none"
       id="rect358-0-2-1-0"
       width="15"
       height="15"
       x="738.17188"
       y="-431.69736"
       ry="1.4999996" />
    <path
       style="fill:#ececec;stroke:#000000;stroke-width:0.15465237"
       d="m 747.34143,-395.00503 c -2.83431,-0.80136 -4.234,-3.94634 -2.9235,-6.56888 0.86433,-1.72968 2.23785,-2.57973 4.16837,-2.57973 1.93051,0 3.30404,0.85005 4.16837,2.57973 1.48103,2.9638 -0.48222,6.41605 -3.806,6.69261 -0.51172,0.0426 -1.20881,-0.0111 -1.60724,-0.12373 z"
       id="path448-9-0-68"
       inkscape:connector-curvature="0" />
    <path
       style="fill:#ececec;stroke:#000000;stroke-width:0.15465237"
       d="m 743.84152,-413.78698 c -2.83432,-0.80136 -4.234,-3.94634 -2.9235,-6.56888 0.86433,-1.72968 2.23785,-2.57973 4.16837,-2.57973 1.93051,0 3.30404,0.85005 4.16837,2.57973 1.48103,2.9638 -0.48222,6.41605 -3.806,6.69261 -0.51172,0.0426 -1.20881,-0.0111 -1.60724,-0.12373 z"
       id="path450-2-7-64"
       inkscape:connector-curvature="0" />
    <path
       style="fill:#808080;stroke:#000000;stroke-width:0.5;stroke-miterlimit:4;stroke-dasharray:none"
       d="m 747.67157,-395.0422 c -1.69297,-0.31519 -3.04763,-1.62648 -3.52765,-3.41474 -0.15066,-0.56126 -0.14188,-1.5334 0.0193,-2.13994 0.36163,-1.36058 1.28015,-2.52216 2.40558,-3.04214 0.66253,-0.30611 1.04353,-0.37819 2.00043,-0.37846 1.01273,-2.6e-4 1.44577,0.0859 2.12612,0.42327 1.08106,0.53606 1.97737,1.705 2.31906,3.02444 0.17398,0.6718 0.17389,1.49962 -2.3e-4,2.17226 -0.45109,1.74261 -1.868,3.0439 -3.65334,3.35524 -0.48388,0.0844 -1.23626,0.0844 -1.6893,4e-5 z"
       id="path402-2-6-5"
       inkscape:connector-curvature="0" />
    <path
       style="fill:#808080;stroke:#000000;stroke-width:0.5;stroke-miterlimit:4;stroke-dasharray:none"
       d="m 744.48758,-413.78027 c -1.09991,-0.10604 -2.21824,-0.72864 -2.9398,-1.63666 -1.10999,-1.3968 -1.33057,-3.20083 -0.58405,-4.77674 0.51157,-1.07994 1.19264,-1.79989 2.10135,-2.22132 1.35319,-0.62756 3.16523,-0.55002 4.41124,0.18877 0.92022,0.54562 1.7337,1.70045 2.04157,2.89828 0.11109,0.43217 0.11958,0.53291 0.0996,1.18117 -0.0165,0.5376 -0.0465,0.79349 -0.12418,1.05988 -0.53394,1.83171 -2.03781,3.0921 -3.94788,3.30872 -0.46744,0.053 -0.48669,0.053 -1.05787,-0.002 z"
       id="path404-2-7-8"
       inkscape:connector-curvature="0" />
  </g>
</svg>
