<?xml version="1.0" encoding="UTF-8" standalone="no"?>
<!-- Created with Inkscape (http://www.inkscape.org/) -->

<svg
   xmlns:dc="http://purl.org/dc/elements/1.1/"
   xmlns:cc="http://creativecommons.org/ns#"
   xmlns:rdf="http://www.w3.org/1999/02/22-rdf-syntax-ns#"
   xmlns:svg="http://www.w3.org/2000/svg"
   xmlns="http://www.w3.org/2000/svg"
   xmlns:sodipodi="http://sodipodi.sourceforge.net/DTD/sodipodi-0.dtd"
   xmlns:inkscape="http://www.inkscape.org/namespaces/inkscape"
   width="168.54886mm"
   height="113.85216mm"
   viewBox="0 0 168.54886 113.85216"
   version="1.1"
   id="svg8"
   inkscape:version="0.92.3 (2405546, 2018-03-11)"
   sodipodi:docname="vibration-left-right-6.svg">
  <defs
     id="defs2" />
  <sodipodi:namedview
     id="base"
     pagecolor="#ffffff"
     bordercolor="#666666"
     borderopacity="1.0"
     inkscape:pageopacity="0.0"
     inkscape:pageshadow="2"
     inkscape:zoom="1.7108262"
     inkscape:cx="255.47337"
     inkscape:cy="180.93715"
     inkscape:document-units="mm"
     inkscape:current-layer="layer1"
     showgrid="false"
     inkscape:window-width="2560"
     inkscape:window-height="1315"
     inkscape:window-x="-13"
     inkscape:window-y="-13"
     inkscape:window-maximized="1" />
  <metadata
     id="metadata5">
    <rdf:RDF>
      <cc:Work
         rdf:about="">
        <dc:format>image/svg+xml</dc:format>
        <dc:type
           rdf:resource="http://purl.org/dc/dcmitype/StillImage" />
        <dc:title></dc:title>
      </cc:Work>
    </rdf:RDF>
  </metadata>
  <g
     inkscape:label="Layer 1"
     inkscape:groupmode="layer"
     id="layer1"
     transform="translate(-15.082881,-17.586758)">
    <g
       id="g248">
      <path
         sodipodi:nodetypes="aaaaaasaaaaaa"
         inkscape:connector-curvature="0"
         id="path14"
         d="m 79.357308,122.46779 c -11.785113,11.78511 -38.214887,11.78511 -50,0 -18.856181,-18.85618 -18.856181,-61.143822 0,-80.000003 32.998316,-32.9983163 107.001682,-32.9983163 140.000002,0 18.85618,18.856181 18.85618,61.143823 0,80.000003 -11.78511,11.78511 -38.21489,11.78511 -50,0 -4.49581,-4.4958 -4.47567,-14.55823 0,-19.07408 7.01751,-7.080503 22.87978,6.80508 29.90551,-0.26727 9.55162,-9.614994 9.66671,-31.06416 0.0945,-40.658653 -23.54283,-23.597598 -76.429776,-23.570226 -100.000002,0 -9.42809,9.42809 -9.42809,30.57191 0,40.000003 7.071068,7.07107 22.928932,-7.071071 30,0 4.714045,4.71405 4.714045,15.28595 0,20 z"
         style="fill:none;stroke:#000000;stroke-width:0.26458332px;stroke-linecap:butt;stroke-linejoin:miter;stroke-opacity:1" />
      <circle
         r="4.8825598"
         cy="115.37447"
         cx="68.188011"
         id="path16"
         style="fill:#999999;stroke:#000000;stroke-width:0.2348807" />
      <circle
         r="4.8825598"
         cy="115.37447"
         cx="130.83591"
         id="path16-0"
         style="fill:#999999;stroke:#000000;stroke-width:0.2348807" />
      <circle
         r="4.8825598"
         cy="118.422"
         cx="47.858067"
         id="path16-6"
         style="fill:#999999;stroke:#000000;stroke-width:0.2348807" />
      <circle
         r="4.8825598"
         cy="118.422"
         cx="151.79816"
         id="path16-0-9"
         style="fill:#999999;stroke:#000000;stroke-width:0.2348807" />
      <circle
         r="4.8825598"
         cy="105.23106"
         cx="33.714218"
         id="path16-6-8"
         style="fill:#999999;stroke:#000000;stroke-width:0.2348807" />
      <circle
         r="4.8825598"
         cy="84.043678"
         cx="28.61068"
         id="path16-6-9"
         style="fill:#999999;stroke:#000000;stroke-width:0.2348807" />
      <circle
         r="4.8825598"
         cy="63.165611"
         cx="31.085127"
         id="path16-6-3"
         style="fill:#999999;stroke:#000000;stroke-width:0.2348807" />
      <circle
         r="4.8825598"
         cy="45.999195"
         cx="42.529404"
         id="path16-6-83"
         style="fill:#999999;stroke:#000000;stroke-width:0.2348807" />
      <circle
         r="4.8825598"
         cy="35.173538"
         cx="62.634209"
         id="path16-6-6"
         style="fill:#999999;stroke:#000000;stroke-width:0.2348807" />
      <circle
         r="4.8825598"
         cy="32.080479"
         cx="85.368111"
         id="path16-6-4"
         style="fill:#999999;stroke:#000000;stroke-width:0.2348807" />
      <circle
         r="4.8825598"
         cy="31.771173"
         cx="111.0404"
         id="path16-6-86"
         style="fill:#999999;stroke:#000000;stroke-width:0.2348807" />
      <circle
         r="4.8825598"
         cy="35.792149"
         cx="133.46501"
         id="path16-6-32"
         style="fill:#999999;stroke:#000000;stroke-width:0.2348807" />
      <circle
         r="4.8825598"
         cy="45.999195"
         cx="152.17795"
         id="path16-6-88"
         style="fill:#999999;stroke:#000000;stroke-width:0.2348807" />
      <circle
         r="4.8825598"
         cy="63.165611"
         cx="167.02457"
         id="path16-6-39"
         style="fill:#999999;stroke:#000000;stroke-width:0.2348807" />
      <circle
         r="4.8825598"
         cy="84.043678"
         cx="171.20027"
         id="path16-6-96"
         style="fill:#999999;stroke:#000000;stroke-width:0.2348807" />
      <circle
         r="4.8825598"
         cy="105.23106"
         cx="166.71526"
         id="path16-6-99"
         style="fill:#999999;stroke:#000000;stroke-width:0.2348807" />
    </g>
    <path
       style="fill:#999999;stroke:#000000;stroke-width:0.58451289"
       d="M 135.00526,428.51056 C 120.9881,427.44 103.09971,423.49711 91.432222,418.90634 67.439872,409.46614 51.572778,396.31659 36.102809,373.05315 18.6949,346.87548 7.5198556,314.04295 2.8785337,275.4395 1.5949288,264.76331 1.1008092,237.35809 1.9827324,225.7559 4.0325204,198.7898 9.2950903,174.70904 18.07778,152.10727 23.891095,137.14703 34.669195,118.1447 44.103288,106.22301 48.596736,100.54472 61.765117,87.354229 68.955304,81.329275 99.872425,55.422529 137.17134,35.552379 180.59727,21.854553 277.30375,-8.6495374 392.53253,-4.9604793 483.66722,31.55736 c 34.29993,13.744049 63.97123,31.698927 89.13822,53.93986 24.49997,21.65148 39.75056,45.75845 51.01354,80.63836 11.25456,34.85365 14.64304,76.52633 9.42749,115.94073 -6.44747,48.72372 -27.01204,92.80035 -54.79783,117.44974 -22.79773,20.22437 -62.19864,31.72049 -99.90493,29.14955 -34.68792,-2.36514 -64.39307,-13.82334 -82.76651,-31.92563 -6.65817,-6.55992 -10.70157,-14.65306 -12.71519,-25.45036 -1.12505,-6.03264 -0.85372,-18.07706 0.54842,-24.34414 2.7384,-12.23976 9.33605,-22.57008 16.86931,-26.41326 5.1142,-2.60907 8.66974,-3.19132 17.40413,-2.85009 9.10738,0.35581 13.7411,1.33937 33.48665,7.10795 21.05983,6.15255 30.1376,7.71055 39.09002,6.70896 8.61998,-0.9644 12.67688,-3.05334 19.01545,-9.79127 12.23938,-13.01055 20.36121,-31.53246 24.26569,-55.33821 1.30614,-7.96353 1.48098,-31.7878 0.28741,-39.16237 -4.96153,-30.65518 -14.7646,-49.16767 -35.41249,-66.87423 -51.49587,-44.16023 -135.27517,-65.643825 -218.82493,-56.11347 -61.06884,6.96601 -113.43711,28.9823 -147.91183,62.18405 -8.11724,7.81751 -12.7436,14.11532 -17.61515,23.97934 -5.81942,11.78328 -9.22553,23.24228 -11.20637,37.70108 -1.11409,8.13205 -0.9515,27.94672 0.29736,36.2398 3.53159,23.45152 12.29458,43.3014 24.63543,55.80404 4.73811,4.80023 8.59344,7.03794 14.15667,8.21679 10.13855,2.14836 19.72354,0.65272 45.17139,-7.0485 17.82137,-5.39324 23.92148,-6.74255 32.14821,-7.111 10.6467,-0.47684 16.22408,1.20444 22.34748,6.73656 11.93092,10.77887 16.96988,35.58312 11.24321,55.34465 -2.98156,10.28874 -7.63116,17.36764 -15.98901,24.3429 -24.522,20.46545 -62.69792,30.89793 -102.0638,27.89137 z m -2.8072,-30.39575 c 11.77889,-5.60617 14.37095,-21.34987 5.04973,-30.67109 -3.53491,-3.53491 -7.8329,-5.20305 -13.4072,-5.20359 -4.25835,-4.2e-4 -5.13881,0.20549 -8.7457,2.04533 -7.11168,3.62759 -10.55974,9.80817 -10.06755,18.04588 0.41559,6.95563 4.05712,12.64728 10.02742,15.67266 5.65952,2.86789 11.27425,2.90419 17.1433,0.11081 z m 392.38506,0.26911 c 6.68589,-2.9674 10.53239,-8.59086 10.98012,-16.05258 0.49421,-8.23652 -2.95388,-14.41785 -10.06642,-18.04588 -3.60689,-1.83984 -4.48735,-2.04575 -8.74569,-2.04533 -5.71614,5.6e-4 -10.0193,1.73163 -13.6791,5.5028 -5.02911,5.18216 -6.76068,13.34366 -4.24519,20.00902 3.93246,10.41991 15.48731,15.18966 25.75628,10.63197 z M 209.21978,386.54973 c 6.78252,-3.33903 10.51801,-9.40439 10.4791,-17.01508 -0.0848,-16.59168 -19.39387,-25.08359 -31.95599,-14.0539 -1.18428,1.03981 -3.0135,3.63878 -4.06492,5.77548 -1.68764,3.42962 -1.90901,4.43414 -1.88895,8.57155 0.0191,3.93869 0.28233,5.19972 1.64933,7.90148 1.8692,3.6943 3.86152,5.9886 6.87586,7.91801 5.71787,3.6599 12.63382,3.99003 18.90557,0.90246 z m 236.72773,0 c 6.76074,-3.3283 10.48894,-9.36903 10.51149,-17.03157 0.0112,-3.81323 -0.24532,-4.93646 -1.891,-8.2793 -3.4034,-6.91329 -9.39325,-10.64811 -17.0773,-10.64811 -7.68406,0 -13.67391,3.73482 -17.07731,10.64811 -1.64568,3.34284 -1.90222,4.46607 -1.891,8.2793 0.0261,8.86785 5.1013,15.63638 13.87488,18.50419 3.86244,1.26251 9.16499,0.68623 13.55024,-1.47262 z M 78.915492,348.36344 c 3.576301,-1.83153 7.535762,-5.99899 9.210041,-9.69387 1.732508,-3.82339 1.732508,-10.99479 0,-14.81818 -1.661028,-3.66564 -5.609605,-7.84031 -9.210041,-9.73742 -2.589392,-1.36437 -3.618252,-1.55229 -8.498906,-1.55229 -4.880653,0 -5.909513,0.18792 -8.498905,1.55229 -3.600436,1.89711 -7.549017,6.07178 -9.21004,9.73742 -0.930591,2.05367 -1.238412,3.89528 -1.238412,7.40909 0,5.60627 1.236678,8.79668 4.986817,12.8651 4.254563,4.61566 8.158835,6.17414 14.83731,5.92268 3.640282,-0.13706 5.328688,-0.51027 7.622136,-1.68482 z m 502.681108,0 c 3.57631,-1.83153 7.53574,-5.99899 9.21002,-9.69387 1.73256,-3.82339 1.73256,-10.99479 0,-14.81818 -1.66101,-3.66564 -5.60957,-7.84031 -9.21002,-9.73742 -2.58939,-1.36437 -3.61825,-1.55229 -8.49891,-1.55229 -4.88065,0 -5.90951,0.18792 -8.4989,1.55229 -3.60044,1.89711 -7.54902,6.07178 -9.21005,9.73742 -0.93059,2.05367 -1.23841,3.89528 -1.23841,7.40909 0,5.60627 1.23668,8.79668 4.98682,12.8651 4.25456,4.61566 8.15884,6.17414 14.83731,5.92268 3.64028,-0.13706 5.32869,-0.51027 7.62214,-1.68482 z M 59.626566,268.28517 c 3.576301,-1.83153 7.535762,-5.99899 9.210041,-9.69387 1.732508,-3.82339 1.732508,-10.99479 0,-14.81818 -1.661028,-3.66564 -5.609606,-7.84031 -9.210041,-9.73742 -2.589394,-1.36437 -3.618251,-1.55229 -8.498906,-1.55229 -4.880655,0 -5.909512,0.18792 -8.498903,1.55229 -3.600438,1.89711 -7.549019,6.07178 -9.210043,9.73742 -1.73251,3.82339 -1.73251,10.99479 0,14.81818 2.244451,4.95317 7.180612,9.34469 12.44833,11.07482 0.803705,0.26397 3.565529,0.40071 6.137386,0.30387 3.640281,-0.13706 5.32869,-0.51027 7.622136,-1.68482 z m 538.920874,0 c 3.57634,-1.83153 7.53578,-5.99899 9.21006,-9.69387 1.73255,-3.82339 1.73255,-10.99479 0,-14.81818 -1.66101,-3.66564 -5.60957,-7.84031 -9.21006,-9.73742 -2.58939,-1.36437 -3.61819,-1.55229 -8.49887,-1.55229 -4.88069,0 -5.90952,0.18792 -8.49891,1.55229 -3.60044,1.89711 -7.54901,6.07178 -9.21004,9.73742 -0.93059,2.05367 -1.23841,3.89528 -1.23841,7.40909 0,5.60627 1.23668,8.79669 4.98681,12.86511 4.25457,4.61565 8.15884,6.17414 14.83732,5.92267 3.64028,-0.13706 5.32871,-0.51027 7.6221,-1.68482 z M 68.978772,189.37593 c 3.576302,-1.83153 7.535763,-5.99899 9.210042,-9.69387 1.732508,-3.82339 1.732508,-10.99479 0,-14.81819 -1.661028,-3.66563 -5.609606,-7.8403 -9.210042,-9.73741 -2.589392,-1.36437 -3.618252,-1.55229 -8.498905,-1.55229 -4.880655,0 -5.909512,0.18792 -8.498903,1.55229 -3.600439,1.89711 -7.549019,6.07178 -9.210043,9.73741 -0.93059,2.05368 -1.238412,3.89529 -1.238412,7.4091 0,5.60627 1.236678,8.79668 4.986817,12.8651 4.254561,4.61566 8.158837,6.17414 14.83731,5.92268 3.640282,-0.13706 5.328689,-0.51028 7.622136,-1.68482 z m 513.786848,0 c 3.57632,-1.83153 7.53575,-5.99899 9.21003,-9.69387 1.73255,-3.82339 1.73255,-10.99479 0,-14.81819 -1.66101,-3.66563 -5.60957,-7.8403 -9.21003,-9.73741 -2.58939,-1.36437 -3.61825,-1.55229 -8.4989,-1.55229 -4.88066,0 -5.90952,0.18792 -8.49891,1.55229 -3.60043,1.89711 -7.54901,6.07178 -9.21004,9.73741 -0.93059,2.05368 -1.23841,3.89529 -1.23841,7.4091 0,5.60627 1.23668,8.79668 4.98682,12.8651 4.25456,4.61566 8.15883,6.17414 14.83731,5.92268 3.64028,-0.13706 5.32869,-0.51028 7.62213,-1.68482 z M 112.23273,124.495 c 3.5763,-1.83153 7.53576,-5.999 9.21004,-9.69387 1.73251,-3.8234 1.73251,-10.9948 0,-14.81819 -1.66103,-3.665632 -5.60961,-7.840305 -9.21004,-9.737412 -2.58939,-1.364376 -3.61825,-1.552291 -8.49891,-1.552291 -4.880651,0 -5.909511,0.187915 -8.498903,1.552291 -3.600436,1.897107 -7.549014,6.07178 -9.210041,9.737412 -0.930592,2.05367 -1.238414,3.89529 -1.238414,7.40909 0,5.60628 1.236683,8.79669 4.986819,12.86511 4.254564,4.61565 8.158836,6.17414 14.837309,5.92268 3.64028,-0.13707 5.32869,-0.51028 7.62214,-1.68482 z m 414.41965,0 c 3.5763,-1.83153 7.53577,-5.999 9.21004,-9.69387 1.73251,-3.8234 1.73251,-10.9948 0,-14.81819 -1.66102,-3.665632 -5.6096,-7.840305 -9.21004,-9.737412 -2.58939,-1.364376 -3.61825,-1.552291 -8.4989,-1.552291 -4.88066,0 -5.90952,0.187915 -8.49891,1.552291 -3.60043,1.897107 -7.54901,6.07178 -9.21004,9.737412 -0.93059,2.05367 -1.23841,3.89529 -1.23841,7.40909 0,5.60628 1.23668,8.79669 4.98682,12.86511 4.25456,4.61565 8.15883,6.17414 14.83731,5.92268 3.64028,-0.13707 5.32869,-0.51028 7.62213,-1.68482 z M 455.92632,85.917146 c 3.5763,-1.831531 7.53576,-5.998997 9.21004,-9.693872 1.73251,-3.823393 1.73251,-10.994793 0,-14.818186 -1.66103,-3.665631 -5.6096,-7.840308 -9.21004,-9.737412 -2.58939,-1.364374 -3.61825,-1.552291 -8.4989,-1.552291 -4.88066,0 -5.90952,0.187917 -8.49891,1.552291 -3.60044,1.897104 -7.54901,6.071781 -9.21004,9.737412 -0.93059,2.053675 -1.23841,3.895288 -1.23841,7.409093 0,5.606274 1.23668,8.796685 4.98681,12.865106 4.25457,4.615653 8.15884,6.17414 14.83731,5.922676 3.64029,-0.137062 5.32869,-0.510274 7.62214,-1.684817 z M 188.21941,83.579094 c 3.5763,-1.83153 7.53576,-5.998996 9.21004,-9.693872 1.73251,-3.823392 1.73251,-10.994793 0,-14.818186 -1.66103,-3.66563 -5.60961,-7.840307 -9.21004,-9.737412 -2.5894,-1.364373 -3.61826,-1.55229 -8.49891,-1.55229 -4.88065,0 -5.90951,0.187917 -8.4989,1.55229 -3.60044,1.897105 -7.54902,6.071782 -9.21005,9.737412 -0.93059,2.053675 -1.23841,3.895288 -1.23841,7.409093 0,5.606274 1.23668,8.796686 4.98682,12.865106 4.25456,4.615653 8.15884,6.17414 14.83731,5.922677 3.64028,-0.137063 5.32869,-0.510274 7.62214,-1.684818 z M 274.1428,71.888836 c 3.57631,-1.831531 7.53577,-5.998997 9.21005,-9.693872 1.7325,-3.823392 1.7325,-10.994794 0,-14.818186 -1.66103,-3.665631 -5.60961,-7.840308 -9.21005,-9.737412 -2.58939,-1.364374 -3.61825,-1.55229 -8.4989,-1.55229 -4.88065,0 -5.90951,0.187916 -8.49891,1.55229 -3.60043,1.897104 -7.54901,6.071781 -9.21004,9.737412 -0.93059,2.053674 -1.23841,3.895288 -1.23841,7.409093 0,5.606274 1.23668,8.796686 4.98682,12.865106 4.25456,4.615653 8.15883,6.17414 14.83731,5.922676 3.64028,-0.137062 5.32869,-0.510274 7.62213,-1.684817 z m 97.02915,-1.169026 c 3.5763,-1.83153 7.53576,-5.998996 9.21004,-9.693872 1.73251,-3.823392 1.73251,-10.994794 0,-14.818186 -1.66103,-3.66563 -5.60961,-7.840307 -9.21004,-9.737412 -2.58939,-1.364374 -3.61825,-1.55229 -8.49891,-1.55229 -4.88065,0 -5.90951,0.187916 -8.4989,1.55229 -3.60044,1.897105 -7.54902,6.071782 -9.21004,9.737412 -0.9306,2.053674 -1.23842,3.895289 -1.23842,7.409093 0,5.606274 1.23669,8.796686 4.98682,12.865106 4.25457,4.615653 8.15884,6.17414 14.83731,5.922676 3.64028,-0.137062 5.32869,-0.510273 7.62214,-1.684817 z"
       id="path442"
       inkscape:connector-curvature="0"
       transform="matrix(0.26458333,0,0,0.26458333,15.082881,17.586758)" />
    <path
       style="fill:#ececec;stroke:#000000;stroke-width:0.58451289"
       d="m 195.49857,386.56916 c -4.68959,-1.5348 -8.79193,-5.24877 -10.96007,-9.92247 -1.27065,-2.73906 -1.41871,-3.72104 -1.18975,-7.89093 0.31949,-5.81869 1.5808,-8.52516 5.69824,-12.2271 7.15437,-6.43239 17.19448,-6.14025 24.03406,0.69933 6.69087,6.69087 7.12609,16.76057 1.02401,23.6929 -3.79206,4.30801 -6.82592,5.76525 -12.41149,5.96153 -2.60146,0.0914 -5.38922,-0.0496 -6.195,-0.31326 z"
       id="path444"
       inkscape:connector-curvature="0"
       transform="matrix(0.26458333,0,0,0.26458333,15.082881,17.586758)" />
    <path
       style="fill:#ececec;stroke:#000000;stroke-width:0.58451289"
       d="m 117.34259,397.53842 c -3.73113,-1.43428 -7.62924,-5.11186 -9.5449,-9.00492 -1.14074,-2.31825 -1.43109,-3.80876 -1.42147,-7.29717 0.0141,-5.12468 1.28742,-8.46032 4.65044,-12.18278 8.15415,-9.02566 23.31363,-6.67723 28.76032,4.4554 2.17974,4.45523 2.26906,10.66926 0.21449,14.92206 -4.12181,8.53179 -13.91578,12.46833 -22.65888,9.10741 z"
       id="path446"
       inkscape:connector-curvature="0"
       transform="matrix(0.26458333,0,0,0.26458333,15.082881,17.586758)" />
    <path
       style="fill:#ececec;stroke:#000000;stroke-width:0.58451289"
       d="M 65.711585,348.32668 C 54.999198,345.29793 49.709044,333.4114 54.662111,323.49943 c 3.266761,-6.53737 8.458042,-9.75016 15.754475,-9.75016 7.296433,0 12.487715,3.21279 15.754476,9.75016 5.597584,11.20176 -1.82257,24.24963 -14.384885,25.29491 -1.934056,0.16093 -4.568743,-0.0419 -6.074592,-0.46766 z"
       id="path448"
       inkscape:connector-curvature="0"
       transform="matrix(0.26458333,0,0,0.26458333,15.082881,17.586758)" />
    <path
       style="fill:#ececec;stroke:#000000;stroke-width:0.58451289"
       d="m 46.422659,268.24841 c -10.712387,-3.02875 -16.002541,-14.91528 -11.049474,-24.82725 3.266761,-6.53737 8.458042,-9.75015 15.754475,-9.75015 7.296433,0 12.487715,3.21278 15.754475,9.75015 5.597585,11.20176 -1.822569,24.24963 -14.384885,25.29491 -1.934055,0.16093 -4.568742,-0.0419 -6.074591,-0.46766 z"
       id="path450"
       inkscape:connector-curvature="0"
       transform="matrix(0.26458333,0,0,0.26458333,15.082881,17.586758)" />
    <path
       style="fill:#ececec;stroke:#000000;stroke-width:0.58451289"
       d="m 55.774866,189.33917 c -10.712388,-3.02875 -16.002541,-14.91529 -11.049475,-24.82725 3.266761,-6.53737 8.458043,-9.75016 15.754476,-9.75016 7.296433,0 12.487714,3.21279 15.754475,9.75016 5.597584,11.20176 -1.822569,24.24963 -14.384885,25.29491 -1.934056,0.16093 -4.568743,-0.0419 -6.074591,-0.46766 z"
       id="path452"
       inkscape:connector-curvature="0"
       transform="matrix(0.26458333,0,0,0.26458333,15.082881,17.586758)" />
    <path
       style="fill:#ececec;stroke:#000000;stroke-width:0.58451289"
       d="M 99.028821,124.45823 C 88.316434,121.42948 83.02628,109.54295 87.979347,99.630985 c 3.266761,-6.537367 8.458042,-9.750156 15.754473,-9.750156 7.29644,0 12.48772,3.212789 15.75448,9.750156 5.59758,11.201755 -1.82257,24.249625 -14.38489,25.294915 -1.93405,0.16092 -4.56874,-0.0419 -6.074589,-0.46767 z"
       id="path454"
       inkscape:connector-curvature="0"
       transform="matrix(0.26458333,0,0,0.26458333,15.082881,17.586758)" />
    <path
       style="fill:#ececec;stroke:#000000;stroke-width:0.58451289"
       d="m 175.0155,83.542331 c -10.71239,-3.028751 -16.00254,-14.915285 -11.04947,-24.82725 3.26676,-6.537367 8.45804,-9.750156 15.75447,-9.750156 7.29643,0 12.48772,3.212789 15.75448,9.750156 5.59758,11.201758 -1.82257,24.249628 -14.38489,25.29491 -1.93405,0.160929 -4.56874,-0.0419 -6.07459,-0.46766 z"
       id="path456"
       inkscape:connector-curvature="0"
       transform="matrix(0.26458333,0,0,0.26458333,15.082881,17.586758)" />
    <path
       style="fill:#ececec;stroke:#000000;stroke-width:0.58451289"
       d="m 260.9389,71.852073 c -10.71239,-3.028751 -16.00254,-14.915286 -11.04948,-24.82725 3.26676,-6.537367 8.45805,-9.750156 15.75448,-9.750156 7.29643,0 12.48771,3.212789 15.75447,9.750156 5.59759,11.201758 -1.82256,24.249628 -14.38488,25.29491 -1.93406,0.160928 -4.56874,-0.0419 -6.07459,-0.46766 z"
       id="path458"
       inkscape:connector-curvature="0"
       transform="matrix(0.26458333,0,0,0.26458333,15.082881,17.586758)" />
    <path
       style="fill:#ececec;stroke:#000000;stroke-width:0.58451289"
       d="m 357.96804,70.683047 c -10.71239,-3.028751 -16.00254,-14.915286 -11.04947,-24.82725 3.26676,-6.537367 8.45804,-9.750156 15.75447,-9.750156 7.29644,0 12.48772,3.212789 15.75448,9.750156 5.59758,11.201758 -1.82257,24.249628 -14.38489,25.29491 -1.93405,0.160929 -4.56874,-0.0419 -6.07459,-0.46766 z"
       id="path460"
       inkscape:connector-curvature="0"
       transform="matrix(0.26458333,0,0,0.26458333,15.082881,17.586758)" />
    <path
       style="fill:#ececec;stroke:#000000;stroke-width:0.58451289"
       d="m 513.44848,124.45823 c -10.71239,-3.02875 -16.00254,-14.91528 -11.04948,-24.827245 3.26676,-6.537367 8.45804,-9.750156 15.75448,-9.750156 7.29643,0 12.48771,3.212789 15.75447,9.750156 5.59759,11.201755 -1.82257,24.249625 -14.38488,25.294915 -1.93406,0.16092 -4.56874,-0.0419 -6.07459,-0.46767 z"
       id="path464"
       inkscape:connector-curvature="0"
       transform="matrix(0.26458333,0,0,0.26458333,15.082881,17.586758)" />
    <path
       style="fill:#ececec;stroke:#000000;stroke-width:0.58451289"
       d="m 569.56172,189.33917 c -10.71239,-3.02875 -16.00254,-14.91529 -11.04948,-24.82725 3.26676,-6.53737 8.45804,-9.75016 15.75448,-9.75016 7.29643,0 12.48771,3.21279 15.75447,9.75016 5.59759,11.20176 -1.82257,24.24963 -14.38488,25.29491 -1.93406,0.16093 -4.56874,-0.0419 -6.07459,-0.46766 z"
       id="path466"
       inkscape:connector-curvature="0"
       transform="matrix(0.26458333,0,0,0.26458333,15.082881,17.586758)" />
    <path
       style="fill:#ececec;stroke:#000000;stroke-width:0.58451289"
       d="m 585.34357,268.24841 c -10.71239,-3.02875 -16.00255,-14.91528 -11.04948,-24.82725 3.26676,-6.53737 8.45804,-9.75015 15.75448,-9.75015 7.29643,0 12.48771,3.21278 15.75447,9.75015 5.59759,11.20176 -1.82257,24.24963 -14.38488,25.29491 -1.93406,0.16093 -4.56875,-0.0419 -6.07459,-0.46766 z"
       id="path468"
       inkscape:connector-curvature="0"
       transform="matrix(0.26458333,0,0,0.26458333,15.082881,17.586758)" />
    <path
       style="fill:#ececec;stroke:#000000;stroke-width:0.58451289"
       d="m 568.39269,348.32668 c -10.71239,-3.02875 -16.00254,-14.91528 -11.04947,-24.82725 3.26676,-6.53737 8.45804,-9.75016 15.75447,-9.75016 7.29643,0 12.48772,3.21279 15.75448,9.75016 5.59758,11.20176 -1.82257,24.24963 -14.38489,25.29491 -1.93405,0.16093 -4.56874,-0.0419 -6.07459,-0.46766 z"
       id="path470"
       inkscape:connector-curvature="0"
       transform="matrix(0.26458333,0,0,0.26458333,15.082881,17.586758)" />
    <path
       style="fill:#ececec;stroke:#000000;stroke-width:0.58451289"
       d="m 432.19594,386.56104 c -2.73242,-0.89094 -4.32345,-1.92735 -7.1332,-4.64661 -4.77046,-4.61682 -6.39023,-11.89498 -4.12785,-18.54774 1.33223,-3.91755 6.45888,-9.04419 10.37642,-10.37642 6.81993,-2.31923 13.46226,-0.79749 18.49747,4.23772 5.15801,5.15801 6.62891,12.00845 4.05533,18.88695 -1.27046,3.39561 -5.29256,7.77085 -8.77475,9.54517 -2.27057,1.15695 -10.37208,1.72305 -12.89342,0.90093 z"
       id="path474"
       inkscape:connector-curvature="0"
       transform="matrix(0.26458333,0,0,0.26458333,15.082881,17.586758)" />
    <path
       style="fill:#c83737;stroke:#000000;stroke-width:0.58451289"
       d="m 442.72241,85.880381 c -10.71239,-3.02875 -16.00254,-14.915285 -11.04948,-24.827249 3.26677,-6.537368 8.45805,-9.750157 15.75448,-9.750157 7.29643,0 12.48771,3.212789 15.75447,9.750157 5.59759,11.201758 -1.82256,24.249627 -14.38488,25.294909 -1.93406,0.160929 -4.56874,-0.0419 -6.07459,-0.46766 z"
       id="path92"
       inkscape:connector-curvature="0"
       transform="matrix(0.26458333,0,0,0.26458333,15.082881,17.586758)" />
    <path
       style="fill:#c83737;stroke:#000000;stroke-width:0.58451289"
       d="m 510.13527,397.53842 c -3.74864,-1.44101 -7.62223,-5.11113 -9.49442,-8.99568 -2.10711,-4.37197 -2.03999,-10.52926 0.16387,-15.03379 5.44669,-11.13264 20.60618,-13.48107 28.76032,-4.4554 3.36302,3.72246 4.63631,7.05809 4.65044,12.18278 0.01,3.48841 -0.28072,4.97892 -1.42146,7.29717 -4.16418,8.46254 -13.95137,12.35211 -22.65875,9.00492 z"
       id="path94"
       inkscape:connector-curvature="0"
       transform="matrix(0.26458333,0,0,0.26458333,15.082881,17.586758)" />
  </g>
</svg>
